ETBook-Expert.ufo
<glyph name="quotesingle" format="2">
  <advance width="272"/>
  <unicode hex="0027"/>
  <outline>
    <contour>
      <point x="87" y="451" type="curve"/>
      <point x="157" y="479"/>
      <point x="203" y="541"/>
      <point x="203" y="604" type="curve" smooth="yes"/>
      <point x="203" y="655"/>
      <point x="173" y="694"/>
      <point x="129" y="694" type="curve" smooth="yes"/>
      <point x="97" y="694"/>
      <point x="71" y="670"/>
      <point x="71" y="638" type="curve" smooth="yes"/>
      <point x="71" y="610"/>
      <point x="91" y="587"/>
      <point x="119" y="587" type="curve" smooth="yes"/>
      <point x="129" y="587"/>
      <point x="139" y="592"/>
      <point x="145" y="592" type="curve" smooth="yes"/>
      <point x="147" y="592"/>
      <point x="152" y="588"/>
      <point x="152" y="575" type="curve" smooth="yes"/>
      <point x="152" y="543"/>
      <point x="127" y="509"/>
      <point x="77" y="479" type="curve" smooth="yes"/>
      <point x="63" y="471"/>
      <point x="79" y="446"/>
    </contour>
  </outline>
</glyph>
<glyph name="comma" format="2">
  <advance width="251"/>
  <unicode hex="002C"/>
  <outline>
    <contour>
      <point x="87" y="-139" type="curve" smooth="yes"/>
      <point x="149" y="-115"/>
      <point x="192" y="-60"/>
      <point x="192" y="0" type="curve" smooth="yes"/>
      <point x="192" y="46"/>
      <point x="164" y="82"/>
      <point x="124" y="82" type="curve" smooth="yes"/>
      <point x="95" y="82"/>
      <point x="70" y="60"/>
      <point x="70" y="30" type="curve" smooth="yes"/>
      <point x="70" y="3"/>
      <point x="89" y="-19"/>
      <point x="115" y="-19" type="curve" smooth="yes"/>
      <point x="121" y="-19"/>
      <point x="134" y="-14"/>
      <point x="138" y="-16" type="curve"/>
      <point x="140" y="-16"/>
      <point x="142" y="-18"/>
      <point x="142" y="-26" type="curve" smooth="yes"/>
      <point x="142" y="-55"/>
      <point x="121" y="-84"/>
      <point x="77" y="-111" type="curve"/>
      <point x="68" y="-114"/>
      <point x="65" y="-124"/>
      <point x="69" y="-132" type="curve"/>
      <point x="72" y="-139"/>
      <point x="80" y="-142"/>
    </contour>
  </outline>
</glyph>
<glyph name="period" format="2">
  <advance width="261"/>
  <unicode hex="002E"/>
  <outline>
    <contour>
      <point x="133" y="-18" type="curve" smooth="yes"/>
      <point x="168" y="-18"/>
      <point x="191" y="7"/>
      <point x="191" y="40" type="curve" smooth="yes"/>
      <point x="191" y="74"/>
      <point x="168" y="97"/>
      <point x="133" y="97" type="curve" smooth="yes"/>
      <point x="97" y="97"/>
      <point x="72" y="74"/>
      <point x="72" y="39" type="curve" smooth="yes"/>
      <point x="72" y="6"/>
      <point x="98" y="-18"/>
    </contour>
  </outline>
</glyph>
<glyph name="slash" format="2">
  <advance width="100"/>
  <unicode hex="002F"/>
  <outline>
    <contour>
      <point x="-152" y="-40" type="curve"/>
      <point x="-8" y="183"/>
      <point x="136" y="405"/>
      <point x="284" y="628" type="curve"/>
      <point x="290" y="643"/>
      <point x="262" y="669"/>
      <point x="249" y="654" type="curve"/>
      <point x="107" y="432"/>
      <point x="-37" y="211"/>
      <point x="-183" y="-11" type="curve" smooth="yes"/>
      <point x="-191" y="-24"/>
      <point x="-171" y="-51"/>
    </contour>
  </outline>
</glyph>
<glyph name="one" format="2">
  <advance width="430"/>
  <unicode hex="0031"/>
  <outline>
    <contour>
      <point x="354" y="-5" type="curve"/>
      <point x="362" y="-5"/>
      <point x="369" y="11"/>
      <point x="366" y="22" type="curve" smooth="yes"/>
      <point x="363" y="34"/>
      <point x="352" y="36"/>
      <point x="340" y="33" type="curve"/>
      <point x="299" y="30"/>
      <point x="276" y="36"/>
      <point x="276" y="86" type="curve" smooth="yes"/>
      <point x="276" y="438" type="line" smooth="yes"/>
      <point x="276" y="446"/>
      <point x="246" y="452"/>
      <point x="233" y="441" type="curve"/>
      <point x="207" y="405"/>
      <point x="161" y="366"/>
      <point x="124" y="340" type="curve" smooth="yes"/>
      <point x="110" y="330"/>
      <point x="100" y="324"/>
      <point x="82" y="312" type="curve"/>
      <point x="75" y="308"/>
      <point x="85" y="284"/>
      <point x="95" y="288" type="curve"/>
      <point x="127" y="304"/>
      <point x="163" y="317"/>
      <point x="192" y="340" type="curve" smooth="yes"/>
      <point x="200" y="346"/>
      <point x="200" y="334"/>
      <point x="201" y="324" type="curve"/>
      <point x="201" y="82" type="line" smooth="yes"/>
      <point x="201" y="46"/>
      <point x="189" y="35"/>
      <point x="132" y="33" type="curve"/>
      <point x="97" y="41"/>
      <point x="98" y="-5"/>
      <point x="117" y="-5" type="curve" smooth="yes"/>
      <point x="193" y="-3"/>
      <point x="279" y="0"/>
    </contour>
  </outline>
</glyph>
<glyph name="two" format="2">
  <advance width="481"/>
  <unicode hex="0032"/>
  <outline>
    <contour>
      <point x="372" y="-4" type="curve" smooth="yes"/>
      <point x="390" y="-4"/>
      <point x="403" y="3"/>
      <point x="405" y="11" type="curve"/>
      <point x="421" y="55"/>
      <point x="434" y="114"/>
      <point x="439" y="150" type="curve"/>
      <point x="441" y="156"/>
      <point x="434" y="159"/>
      <point x="429" y="160" type="curve" smooth="yes"/>
      <point x="423" y="161"/>
      <point x="415" y="160"/>
      <point x="411" y="156" type="curve"/>
      <point x="400" y="127"/>
      <point x="390" y="108"/>
      <point x="382" y="94" type="curve" smooth="yes"/>
      <point x="365" y="66"/>
      <point x="346" y="67"/>
      <point x="316" y="67" type="curve" smooth="yes"/>
      <point x="176" y="69" type="line" smooth="yes"/>
      <point x="162" y="69"/>
      <point x="148" y="70"/>
      <point x="156" y="76" type="curve" smooth="yes"/>
      <point x="217" y="119"/>
      <point x="244" y="137"/>
      <point x="271" y="160" type="curve" smooth="yes"/>
      <point x="352" y="228"/>
      <point x="383" y="277"/>
      <point x="383" y="338" type="curve" smooth="yes"/>
      <point x="383" y="404"/>
      <point x="321" y="455"/>
      <point x="245" y="455" type="curve" smooth="yes"/>
      <point x="178" y="455"/>
      <point x="129" y="428"/>
      <point x="68" y="359" type="curve"/>
      <point x="60" y="343"/>
      <point x="85" y="337"/>
      <point x="89" y="341" type="curve" smooth="yes"/>
      <point x="133" y="381"/>
      <point x="167" y="397"/>
      <point x="205" y="397" type="curve" smooth="yes"/>
      <point x="264" y="397"/>
      <point x="304" y="356"/>
      <point x="304" y="299" type="curve" smooth="yes"/>
      <point x="304" y="257"/>
      <point x="281" y="218"/>
      <point x="220" y="164" type="curve" smooth="yes"/>
      <point x="168" y="118"/>
      <point x="120" y="82"/>
      <point x="36" y="23" type="curve"/>
      <point x="33" y="20"/>
      <point x="31" y="11"/>
      <point x="33" y="4" type="curve"/>
      <point x="34" y="-2"/>
      <point x="45" y="-4"/>
      <point x="50" y="-4" type="curve" smooth="yes"/>
      <point x="119" y="-2"/>
      <point x="278" y="-1"/>
    </contour>
  </outline>
</glyph>
<glyph name="three" format="2">
  <advance width="444"/>
  <unicode hex="0033"/>
  <outline>
    <contour>
      <point x="153" y="-184" type="curve" smooth="yes"/>
      <point x="261" y="-184"/>
      <point x="344" y="-85"/>
      <point x="344" y="36" type="curve" smooth="yes"/>
      <point x="344" y="94"/>
      <point x="324" y="142"/>
      <point x="290" y="170" type="curve" smooth="yes"/>
      <point x="276" y="182"/>
      <point x="267" y="187"/>
      <point x="248" y="189" type="curve" smooth="yes"/>
      <point x="239" y="190"/>
      <point x="243" y="197"/>
      <point x="248" y="201" type="curve" smooth="yes"/>
      <point x="310" y="247"/>
      <point x="331" y="286"/>
      <point x="331" y="336" type="curve" smooth="yes"/>
      <point x="331" y="405"/>
      <point x="283" y="458"/>
      <point x="218" y="458" type="curve" smooth="yes"/>
      <point x="159" y="458"/>
      <point x="107" y="420"/>
      <point x="74" y="355" type="curve"/>
      <point x="70" y="341"/>
      <point x="87" y="329"/>
      <point x="93" y="337" type="curve"/>
      <point x="131" y="380"/>
      <point x="156" y="393"/>
      <point x="189" y="393" type="curve" smooth="yes"/>
      <point x="230" y="393"/>
      <point x="257" y="362"/>
      <point x="257" y="312" type="curve" smooth="yes"/>
      <point x="257" y="254"/>
      <point x="217" y="199"/>
      <point x="131" y="146" type="curve" smooth="yes"/>
      <point x="124" y="142"/>
      <point x="126" y="116"/>
      <point x="140" y="120" type="curve" smooth="yes"/>
      <point x="174" y="129"/>
      <point x="200" y="130"/>
      <point x="227" y="107" type="curve" smooth="yes"/>
      <point x="257" y="81"/>
      <point x="269" y="49"/>
      <point x="269" y="-16" type="curve" smooth="yes"/>
      <point x="269" y="-90"/>
      <point x="239" y="-135"/>
      <point x="201" y="-135" type="curve" smooth="yes"/>
      <point x="183" y="-135"/>
      <point x="167" y="-129"/>
      <point x="135" y="-105" type="curve"/>
      <point x="129" y="-101"/>
      <point x="124" y="-96"/>
      <point x="118" y="-92" type="curve"/>
      <point x="94" y="-78"/>
      <point x="60" y="-92"/>
      <point x="60" y="-124" type="curve" smooth="yes"/>
      <point x="60" y="-160"/>
      <point x="96" y="-184"/>
    </contour>
  </outline>
</glyph>
<glyph name="four" format="2">
  <advance width="481"/>
  <unicode hex="0034"/>
  <outline>
    <contour>
      <point x="447" y="4" type="line" smooth="yes"/>
      <point x="450" y="4"/>
      <point x="458" y="8"/>
      <point x="458" y="16" type="curve" smooth="yes"/>
      <point x="458" y="24"/>
      <point x="457" y="48"/>
      <point x="456" y="54" type="curve"/>
      <point x="454" y="62"/>
      <point x="445" y="63"/>
      <point x="436" y="63" type="curve" smooth="yes"/>
      <point x="349" y="61" type="line"/>
      <point x="341" y="64"/>
      <point x="340" y="66"/>
      <point x="339" y="76" type="curve"/>
      <point x="339" y="444" type="line" smooth="yes"/>
      <point x="339" y="450"/>
      <point x="332" y="456"/>
      <point x="327" y="458" type="curve"/>
      <point x="320" y="459"/>
      <point x="314" y="457"/>
      <point x="309" y="449" type="curve" smooth="yes"/>
      <point x="236" y="344"/>
      <point x="95" y="134"/>
      <point x="29" y="27" type="curve" smooth="yes"/>
      <point x="24" y="19"/>
      <point x="25" y="1"/>
      <point x="36" y="1" type="curve" smooth="yes"/>
      <point x="90" y="-1"/>
      <point x="198" y="-3"/>
      <point x="252" y="0" type="curve"/>
      <point x="254" y="0"/>
      <point x="258" y="-3"/>
      <point x="259" y="-6" type="curve"/>
      <point x="259" y="-161" type="line" smooth="yes"/>
      <point x="259" y="-166"/>
      <point x="263" y="-179"/>
      <point x="275" y="-178" type="curve" smooth="yes"/>
      <point x="324" y="-176" type="line" smooth="yes"/>
      <point x="337" y="-175"/>
      <point x="339" y="-167"/>
      <point x="339" y="-158" type="curve" smooth="yes"/>
      <point x="339" y="-107"/>
      <point x="339" y="-64"/>
      <point x="339" y="-12" type="curve" smooth="yes"/>
      <point x="339" y="-2"/>
      <point x="346" y="2"/>
      <point x="351" y="2" type="curve" smooth="yes"/>
    </contour>
    <contour>
      <point x="247" y="296" type="curve"/>
      <point x="252" y="302"/>
      <point x="259" y="307"/>
      <point x="259" y="293" type="curve" smooth="yes"/>
      <point x="259" y="70" type="line" smooth="yes"/>
      <point x="259" y="69"/>
      <point x="255" y="60"/>
      <point x="245" y="59" type="curve" smooth="yes"/>
      <point x="210" y="57"/>
      <point x="151" y="55"/>
      <point x="116" y="59" type="curve"/>
      <point x="108" y="59"/>
      <point x="95" y="64"/>
      <point x="99" y="70" type="curve"/>
      <point x="134" y="129"/>
      <point x="206" y="239"/>
    </contour>
  </outline>
</glyph>
<glyph name="six" format="2">
  <advance width="484"/>
  <unicode hex="0036"/>
  <outline>
    <contour>
      <point x="248" y="-14" type="curve" smooth="yes"/>
      <point x="360" y="-14"/>
      <point x="445" y="77"/>
      <point x="445" y="197" type="curve" smooth="yes"/>
      <point x="445" y="314"/>
      <point x="364" y="395"/>
      <point x="248" y="395" type="curve" smooth="yes"/>
      <point x="222" y="395"/>
      <point x="211" y="394"/>
      <point x="185" y="386" type="curve" smooth="yes"/>
      <point x="176" y="383"/>
      <point x="184" y="394"/>
      <point x="187" y="399" type="curve"/>
      <point x="254" y="493"/>
      <point x="327" y="543"/>
      <point x="435" y="591" type="curve"/>
      <point x="443" y="601"/>
      <point x="441" y="621"/>
      <point x="411" y="614" type="curve"/>
      <point x="236" y="558"/>
      <point x="41" y="430"/>
      <point x="41" y="220" type="curve" smooth="yes"/>
      <point x="41" y="86"/>
      <point x="129" y="-14"/>
    </contour>
    <contour>
      <point x="235" y="369" type="curve" smooth="yes"/>
      <point x="313" y="369"/>
      <point x="360" y="301"/>
      <point x="360" y="181" type="curve" smooth="yes"/>
      <point x="360" y="116"/>
      <point x="346" y="72"/>
      <point x="318" y="44" type="curve" smooth="yes"/>
      <point x="298" y="24"/>
      <point x="272" y="14"/>
      <point x="245" y="14" type="curve" smooth="yes"/>
      <point x="173" y="14"/>
      <point x="127" y="82"/>
      <point x="127" y="197" type="curve" smooth="yes"/>
      <point x="127" y="247"/>
      <point x="133" y="277"/>
      <point x="154" y="332" type="curve" smooth="yes"/>
      <point x="158" y="342"/>
      <point x="164" y="350"/>
      <point x="171" y="353" type="curve" smooth="yes"/>
      <point x="199" y="365"/>
      <point x="215" y="369"/>
    </contour>
  </outline>
</glyph>
<glyph name="seven" format="2">
  <advance width="471"/>
  <unicode hex="0037"/>
  <outline>
    <contour>
      <point x="192" y="-166" type="curve"/>
      <point x="211" y="-136"/>
      <point x="372" y="262"/>
      <point x="432" y="403" type="curve" smooth="yes"/>
      <point x="439" y="421"/>
      <point x="446" y="443"/>
      <point x="418" y="442" type="curve" smooth="yes"/>
      <point x="336" y="441"/>
      <point x="170" y="441"/>
      <point x="84" y="442" type="curve" smooth="yes"/>
      <point x="76" y="442"/>
      <point x="66" y="437"/>
      <point x="63" y="431" type="curve"/>
      <point x="55" y="397"/>
      <point x="46" y="317"/>
      <point x="42" y="274" type="curve"/>
      <point x="41" y="268"/>
      <point x="66" y="254"/>
      <point x="71" y="274" type="curve" smooth="yes"/>
      <point x="83" y="317" type="line" smooth="yes"/>
      <point x="96" y="364"/>
      <point x="101" y="370"/>
      <point x="127" y="369" type="curve" smooth="yes"/>
      <point x="179" y="368"/>
      <point x="289" y="367"/>
      <point x="346" y="369" type="curve" smooth="yes"/>
      <point x="351" y="369"/>
      <point x="367" y="368"/>
      <point x="363" y="360" type="curve" smooth="yes"/>
      <point x="305" y="241"/>
      <point x="190" y="-17"/>
      <point x="133" y="-156" type="curve"/>
      <point x="130" y="-165"/>
      <point x="139" y="-171"/>
      <point x="143" y="-172" type="curve"/>
      <point x="174" y="-177" type="line" smooth="yes"/>
      <point x="181" y="-178"/>
      <point x="189" y="-173"/>
    </contour>
  </outline>
</glyph>
<glyph name="eight" format="2">
  <advance width="481"/>
  <unicode hex="0038"/>
  <outline>
    <contour>
      <point x="239" y="-14" type="curve" smooth="yes"/>
      <point x="337" y="-14"/>
      <point x="414" y="53"/>
      <point x="414" y="146" type="curve" smooth="yes"/>
      <point x="414" y="216"/>
      <point x="387" y="255"/>
      <point x="303" y="323" type="curve"/>
      <point x="300" y="326"/>
      <point x="300" y="334"/>
      <point x="301" y="334" type="curve"/>
      <point x="372" y="378"/>
      <point x="396" y="419"/>
      <point x="396" y="475" type="curve" smooth="yes"/>
      <point x="396" y="556"/>
      <point x="333" y="614"/>
      <point x="245" y="614" type="curve" smooth="yes"/>
      <point x="153" y="614"/>
      <point x="89" y="554"/>
      <point x="89" y="468" type="curve" smooth="yes"/>
      <point x="89" y="404"/>
      <point x="110" y="359"/>
      <point x="180" y="308" type="curve"/>
      <point x="185" y="305"/>
      <point x="184" y="296"/>
      <point x="181" y="294" type="curve" smooth="yes"/>
      <point x="99" y="244"/>
      <point x="69" y="205"/>
      <point x="69" y="139" type="curve" smooth="yes"/>
      <point x="69" y="49"/>
      <point x="143" y="-14"/>
    </contour>
    <contour>
      <point x="240" y="587" type="curve" smooth="yes"/>
      <point x="297" y="587"/>
      <point x="334" y="541"/>
      <point x="334" y="467" type="curve" smooth="yes"/>
      <point x="334" y="424"/>
      <point x="321" y="378"/>
      <point x="284" y="354" type="curve"/>
      <point x="277" y="350"/>
      <point x="269" y="347"/>
      <point x="265" y="350" type="curve" smooth="yes"/>
      <point x="183" y="409"/>
      <point x="151" y="455"/>
      <point x="151" y="503" type="curve" smooth="yes"/>
      <point x="151" y="552"/>
      <point x="187" y="587"/>
    </contour>
    <contour>
      <point x="205" y="278" type="curve"/>
      <point x="213" y="284"/>
      <point x="216" y="280"/>
      <point x="221" y="276" type="curve"/>
      <point x="313" y="212"/>
      <point x="344" y="168"/>
      <point x="344" y="109" type="curve" smooth="yes"/>
      <point x="344" y="54"/>
      <point x="302" y="15"/>
      <point x="246" y="15" type="curve" smooth="yes"/>
      <point x="180" y="15"/>
      <point x="137" y="63"/>
      <point x="137" y="141" type="curve" smooth="yes"/>
      <point x="137" y="209"/>
      <point x="155" y="245"/>
    </contour>
  </outline>
</glyph>
<glyph name="nine" format="2">
  <advance width="470"/>
  <unicode hex="0039"/>
  <outline>
    <contour>
      <point x="64" y="-176" type="curve" smooth="yes"/>
      <point x="263" y="-128"/>
      <point x="440" y="-13"/>
      <point x="440" y="218" type="curve" smooth="yes"/>
      <point x="440" y="355"/>
      <point x="356" y="456"/>
      <point x="234" y="456" type="curve" smooth="yes"/>
      <point x="121" y="456"/>
      <point x="36" y="365"/>
      <point x="36" y="245" type="curve" smooth="yes"/>
      <point x="36" y="133"/>
      <point x="120" y="46"/>
      <point x="230" y="46" type="curve" smooth="yes"/>
      <point x="257" y="46"/>
      <point x="274" y="48"/>
      <point x="310" y="60" type="curve" smooth="yes"/>
      <point x="318" y="63"/>
      <point x="310" y="46"/>
      <point x="309" y="44" type="curve" smooth="yes"/>
      <point x="288" y="3"/>
      <point x="257" y="-27"/>
      <point x="218" y="-58" type="curve" smooth="yes"/>
      <point x="172" y="-95"/>
      <point x="131" y="-115"/>
      <point x="49" y="-144" type="curve"/>
      <point x="34" y="-151"/>
      <point x="43" y="-181"/>
    </contour>
    <contour>
      <point x="238" y="431" type="curve" smooth="yes"/>
      <point x="309" y="431"/>
      <point x="355" y="362"/>
      <point x="355" y="247" type="curve" smooth="yes"/>
      <point x="355" y="201"/>
      <point x="353" y="170"/>
      <point x="340" y="122" type="curve" smooth="yes"/>
      <point x="337" y="110"/>
      <point x="333" y="98"/>
      <point x="326" y="95" type="curve"/>
      <point x="293" y="78"/>
      <point x="272" y="73"/>
      <point x="246" y="73" type="curve" smooth="yes"/>
      <point x="169" y="73"/>
      <point x="122" y="141"/>
      <point x="122" y="260" type="curve" smooth="yes"/>
      <point x="122" y="333"/>
      <point x="139" y="381"/>
      <point x="170" y="406" type="curve" smooth="yes"/>
      <point x="189" y="421"/>
      <point x="215" y="431"/>
    </contour>
  </outline>
</glyph>
<glyph name="semicolon" format="2">
  <advance width="235"/>
  <unicode hex="003B"/>
  <outline>
    <contour>
      <point x="117" y="316" type="curve" smooth="yes"/>
      <point x="147" y="316"/>
      <point x="171" y="337"/>
      <point x="171" y="367" type="curve" smooth="yes"/>
      <point x="171" y="398"/>
      <point x="147" y="419"/>
      <point x="117" y="419" type="curve" smooth="yes"/>
      <point x="87" y="419"/>
      <point x="64" y="398"/>
      <point x="64" y="367" type="curve" smooth="yes"/>
      <point x="64" y="337"/>
      <point x="87" y="316"/>
    </contour>
    <contour>
      <point x="78" y="-120" type="curve" smooth="yes"/>
      <point x="143" y="-93"/>
      <point x="189" y="-38"/>
      <point x="189" y="24" type="curve" smooth="yes"/>
      <point x="189" y="72"/>
      <point x="161" y="108"/>
      <point x="120" y="108" type="curve" smooth="yes"/>
      <point x="90" y="108"/>
      <point x="65" y="88"/>
      <point x="65" y="58" type="curve" smooth="yes"/>
      <point x="65" y="30"/>
      <point x="83" y="6"/>
      <point x="109" y="6" type="curve" smooth="yes"/>
      <point x="116" y="6"/>
      <point x="125" y="9"/>
      <point x="133" y="10" type="curve"/>
      <point x="135" y="10"/>
      <point x="139" y="8"/>
      <point x="139" y="-4" type="curve" smooth="yes"/>
      <point x="139" y="-34"/>
      <point x="116" y="-66"/>
      <point x="69" y="-95" type="curve"/>
      <point x="57" y="-100"/>
      <point x="66" y="-125"/>
    </contour>
  </outline>
</glyph>
<glyph name="I" format="2">
  <advance width="715"/>
  <unicode hex="0049"/>
  <outline>
    <contour>
      <point x="157" y="-22" type="line"/>
      <point x="623" y="638" type="line" smooth="yes"/>
      <point x="628" y="645"/>
      <point x="628" y="658"/>
      <point x="618" y="658" type="curve"/>
      <point x="590" y="660" type="line"/>
      <point x="582" y="661"/>
      <point x="577" y="657"/>
      <point x="572" y="650" type="curve" smooth="yes"/>
      <point x="103" y="-13" type="line"/>
      <point x="98" y="-21"/>
      <point x="98" y="-34"/>
      <point x="110" y="-34" type="curve" smooth="yes"/>
      <point x="141" y="-34" type="line" smooth="yes"/>
      <point x="147" y="-34"/>
      <point x="150" y="-32"/>
      <point x="154" y="-27" type="curve"/>
    </contour>
    <contour>
      <point x="117" y="291" type="curve" smooth="yes"/>
      <point x="201" y="291"/>
      <point x="279" y="350"/>
      <point x="279" y="420" type="curve" smooth="yes"/>
      <point x="279" y="460"/>
      <point x="257" y="491"/>
      <point x="221" y="506" type="curve"/>
      <point x="216" y="507"/>
      <point x="203" y="510"/>
      <point x="213" y="519" type="curve" smooth="yes"/>
      <point x="234" y="537"/>
      <point x="245" y="555"/>
      <point x="245" y="576" type="curve" smooth="yes"/>
      <point x="245" y="617"/>
      <point x="203" y="643"/>
      <point x="155" y="643" type="curve" smooth="yes"/>
      <point x="102" y="643"/>
      <point x="56" y="612"/>
      <point x="32" y="558" type="curve"/>
      <point x="28" y="545"/>
      <point x="60" y="534"/>
      <point x="65" y="545" type="curve"/>
      <point x="84" y="579"/>
      <point x="110" y="596"/>
      <point x="135" y="596" type="curve" smooth="yes"/>
      <point x="161" y="596"/>
      <point x="179" y="579"/>
      <point x="179" y="560" type="curve" smooth="yes"/>
      <point x="179" y="541"/>
      <point x="152" y="510"/>
      <point x="96" y="476" type="curve"/>
      <point x="87" y="467"/>
      <point x="105" y="439"/>
      <point x="118" y="450" type="curve"/>
      <point x="137" y="464"/>
      <point x="146" y="467"/>
      <point x="159" y="467" type="curve" smooth="yes"/>
      <point x="185" y="467"/>
      <point x="208" y="442"/>
      <point x="208" y="407" type="curve" smooth="yes"/>
      <point x="208" y="363"/>
      <point x="174" y="327"/>
      <point x="138" y="327" type="curve" smooth="yes"/>
      <point x="126" y="327"/>
      <point x="116" y="330"/>
      <point x="98" y="342" type="curve" smooth="yes"/>
      <point x="84" y="352"/>
      <point x="67" y="367"/>
      <point x="49" y="367" type="curve" smooth="yes"/>
      <point x="32" y="367"/>
      <point x="17" y="354"/>
      <point x="17" y="338" type="curve" smooth="yes"/>
      <point x="17" y="308"/>
      <point x="71" y="291"/>
    </contour>
    <contour>
      <point x="666" y="95" type="curve" smooth="yes"/>
      <point x="667" y="100"/>
      <point x="667" y="105"/>
      <point x="667" y="108" type="curve" smooth="yes"/>
      <point x="667" y="127"/>
      <point x="665" y="133"/>
      <point x="656" y="132" type="curve"/>
      <point x="613" y="132" type="line" smooth="yes"/>
      <point x="607" y="132"/>
      <point x="605" y="139"/>
      <point x="605" y="142" type="curve" smooth="yes"/>
      <point x="605" y="328" type="line"/>
      <point x="606" y="335"/>
      <point x="594" y="339"/>
      <point x="589" y="340" type="curve" smooth="yes"/>
      <point x="577" y="342"/>
      <point x="577" y="341"/>
      <point x="567" y="338" type="curve"/>
      <point x="515" y="274"/>
      <point x="432" y="168"/>
      <point x="390" y="111" type="curve"/>
      <point x="390" y="98" type="line" smooth="yes"/>
      <point x="390" y="94"/>
      <point x="392" y="86"/>
      <point x="403" y="86" type="curve" smooth="yes"/>
      <point x="435" y="85"/>
      <point x="489" y="83"/>
      <point x="525" y="86" type="curve"/>
      <point x="532" y="85"/>
      <point x="537" y="83"/>
      <point x="539" y="77" type="curve"/>
      <point x="539" y="-2" type="line"/>
      <point x="541" y="-10"/>
      <point x="545" y="-14"/>
      <point x="555" y="-15" type="curve"/>
      <point x="561" y="-17"/>
      <point x="583" y="-15"/>
      <point x="589" y="-15" type="curve" smooth="yes"/>
      <point x="598" y="-15"/>
      <point x="603" y="-11"/>
      <point x="605" y="0" type="curve"/>
      <point x="605" y="67" type="line"/>
      <point x="607" y="77"/>
      <point x="607" y="85"/>
      <point x="615" y="86" type="curve"/>
      <point x="660" y="86" type="line" smooth="yes"/>
      <point x="664" y="86"/>
      <point x="665" y="90"/>
    </contour>
    <contour>
      <point x="542" y="230" type="curve"/>
      <point x="539" y="148" type="line"/>
      <point x="539" y="144"/>
      <point x="537" y="133"/>
      <point x="531" y="132" type="curve"/>
      <point x="515" y="132"/>
      <point x="484" y="131"/>
      <point x="466" y="132" type="curve"/>
      <point x="461" y="132"/>
      <point x="456" y="134"/>
      <point x="458" y="138" type="curve"/>
      <point x="477" y="164"/>
      <point x="515" y="214"/>
      <point x="538" y="241" type="curve"/>
      <point x="543" y="243"/>
      <point x="541" y="235"/>
    </contour>
  </outline>
</glyph>
<glyph name="V" format="2">
  <advance width="627"/>
  <unicode hex="0056"/>
  <outline>
    <contour>
      <point x="550" y="28" type="curve" smooth="yes"/>
      <point x="479" y="23"/>
      <point x="480" y="50"/>
      <point x="480" y="125" type="curve" smooth="yes"/>
      <point x="480" y="333" type="line" smooth="yes"/>
      <point x="480" y="341"/>
      <point x="489" y="353"/>
      <point x="495" y="354" type="curve"/>
      <point x="576" y="353" type="line" smooth="yes"/>
      <point x="583" y="353"/>
      <point x="589" y="355"/>
      <point x="591" y="360" type="curve"/>
      <point x="596" y="381"/>
      <point x="594" y="383"/>
      <point x="584" y="407" type="curve"/>
      <point x="579" y="415"/>
      <point x="573" y="415"/>
      <point x="564" y="415" type="curve" smooth="yes"/>
      <point x="496" y="414" type="line" smooth="yes"/>
      <point x="485" y="414"/>
      <point x="480" y="420"/>
      <point x="480" y="432" type="curve" smooth="yes"/>
      <point x="479" y="501" type="line" smooth="yes"/>
      <point x="478" y="547"/>
      <point x="484" y="574"/>
      <point x="493" y="600" type="curve" smooth="yes"/>
      <point x="507" y="641"/>
      <point x="545" y="667"/>
      <point x="586" y="667" type="curve" smooth="yes"/>
      <point x="616" y="667"/>
      <point x="655" y="650"/>
      <point x="683" y="628" type="curve" smooth="yes"/>
      <point x="696" y="617"/>
      <point x="710" y="605"/>
      <point x="724" y="627" type="curve" smooth="yes"/>
      <point x="734" y="643"/>
      <point x="743" y="660"/>
      <point x="743" y="669" type="curve" smooth="yes"/>
      <point x="743" y="672"/>
      <point x="742" y="677"/>
      <point x="740" y="679" type="curve"/>
      <point x="719" y="711"/>
      <point x="664" y="724"/>
      <point x="631" y="724" type="curve" smooth="yes"/>
      <point x="583" y="724"/>
      <point x="540" y="708"/>
      <point x="496" y="666" type="curve" smooth="yes"/>
      <point x="491" y="661"/>
      <point x="484" y="660"/>
      <point x="472" y="673" type="curve"/>
      <point x="393" y="739"/>
      <point x="265" y="691"/>
      <point x="198" y="631" type="curve" smooth="yes"/>
      <point x="155" y="592"/>
      <point x="134" y="565"/>
      <point x="123" y="534" type="curve" smooth="yes"/>
      <point x="118" y="518"/>
      <point x="115" y="501"/>
      <point x="112" y="481" type="curve" smooth="yes"/>
      <point x="110" y="462"/>
      <point x="108" y="439"/>
      <point x="106" y="412" type="curve"/>
      <point x="83" y="397"/>
      <point x="64" y="393"/>
      <point x="37" y="387" type="curve"/>
      <point x="35" y="387"/>
      <point x="29" y="385"/>
      <point x="26" y="382" type="curve"/>
      <point x="23" y="378"/>
      <point x="24" y="365"/>
      <point x="26" y="359" type="curve"/>
      <point x="29" y="348"/>
      <point x="42" y="356"/>
      <point x="56" y="353" type="curve"/>
      <point x="94" y="351" type="line"/>
      <point x="97" y="350"/>
      <point x="106" y="345"/>
      <point x="106" y="340" type="curve" smooth="yes"/>
      <point x="106" y="92" type="line" smooth="yes"/>
      <point x="106" y="36"/>
      <point x="97" y="27"/>
      <point x="41" y="27" type="curve"/>
      <point x="40" y="28"/>
      <point x="36" y="28"/>
      <point x="31" y="27" type="curve" smooth="yes"/>
      <point x="16" y="24"/>
      <point x="17" y="7"/>
      <point x="21" y="0" type="curve"/>
      <point x="23" y="-3"/>
      <point x="30" y="-4"/>
      <point x="32" y="-4" type="curve" smooth="yes"/>
      <point x="98" y="-2"/>
      <point x="183" y="-2"/>
      <point x="274" y="-4" type="curve" smooth="yes"/>
      <point x="278" y="-4"/>
      <point x="285" y="-3"/>
      <point x="286" y="1" type="curve"/>
      <point x="289" y="8"/>
      <point x="288" y="24"/>
      <point x="280" y="27" type="curve"/>
      <point x="271" y="29"/>
      <point x="259" y="29"/>
      <point x="250" y="27" type="curve"/>
      <point x="182" y="28"/>
      <point x="189" y="73"/>
      <point x="189" y="131" type="curve" smooth="yes"/>
      <point x="189" y="332" type="line"/>
      <point x="191" y="348"/>
      <point x="201" y="354"/>
      <point x="211" y="354" type="curve" smooth="yes"/>
      <point x="254" y="353"/>
      <point x="330" y="353"/>
      <point x="386" y="354" type="curve" smooth="yes"/>
      <point x="390" y="354"/>
      <point x="400" y="346"/>
      <point x="400" y="329" type="curve" smooth="yes"/>
      <point x="400" y="130" type="line" smooth="yes"/>
      <point x="400" y="30"/>
      <point x="395" y="28"/>
      <point x="342" y="28" type="curve" smooth="yes"/>
      <point x="330" y="28"/>
      <point x="326" y="23"/>
      <point x="326" y="10" type="curve" smooth="yes"/>
      <point x="326" y="3"/>
      <point x="332" y="-5"/>
      <point x="338" y="-5" type="curve" smooth="yes"/>
      <point x="413" y="-2"/>
      <point x="502" y="-2"/>
      <point x="578" y="-4" type="curve" smooth="yes"/>
      <point x="592" y="-5"/>
      <point x="597" y="-5"/>
      <point x="596" y="10" type="curve"/>
      <point x="596" y="34"/>
      <point x="568" y="29"/>
    </contour>
    <contour>
      <point x="413" y="615" type="curve" smooth="yes"/>
      <point x="420" y="608"/>
      <point x="436" y="596"/>
      <point x="430" y="585" type="curve" smooth="yes"/>
      <point x="411" y="550"/>
      <point x="405" y="514"/>
      <point x="402" y="465" type="curve" smooth="yes"/>
      <point x="401" y="443"/>
      <point x="401" y="437"/>
      <point x="400" y="421" type="curve"/>
      <point x="400" y="412"/>
      <point x="388" y="412"/>
      <point x="381" y="412" type="curve" smooth="yes"/>
      <point x="332" y="410"/>
      <point x="248" y="410"/>
      <point x="203" y="412" type="curve"/>
      <point x="193" y="413"/>
      <point x="189" y="425"/>
      <point x="189" y="431" type="curve" smooth="yes"/>
      <point x="189" y="507"/>
      <point x="190" y="524"/>
      <point x="196" y="549" type="curve" smooth="yes"/>
      <point x="208" y="605"/>
      <point x="264" y="651"/>
      <point x="319" y="651" type="curve" smooth="yes"/>
      <point x="355" y="651"/>
      <point x="380" y="646"/>
    </contour>
  </outline>
</glyph>
<glyph name="W" format="2">
  <advance width="522"/>
  <unicode hex="0057"/>
  <outline>
    <contour>
      <point x="493" y="-4" type="curve"/>
      <point x="505" y="1"/>
      <point x="504" y="24"/>
      <point x="494" y="25" type="curve" smooth="yes"/>
      <point x="473" y="28" type="line" smooth="yes"/>
      <point x="439" y="33"/>
      <point x="436" y="41"/>
      <point x="436" y="113" type="curve" smooth="yes"/>
      <point x="436" y="279" type="line" smooth="yes"/>
      <point x="436" y="320"/>
      <point x="438" y="368"/>
      <point x="441" y="404" type="curve"/>
      <point x="434" y="414"/>
      <point x="425" y="409"/>
      <point x="417" y="406" type="curve"/>
      <point x="388" y="400"/>
      <point x="337" y="396"/>
      <point x="299" y="395" type="curve" smooth="yes"/>
      <point x="273" y="394"/>
      <point x="229" y="394"/>
      <point x="197" y="395" type="curve" smooth="yes"/>
      <point x="169" y="396"/>
      <point x="170" y="413"/>
      <point x="170" y="436" type="curve" smooth="yes"/>
      <point x="170" y="590"/>
      <point x="206" y="675"/>
      <point x="282" y="675" type="curve" smooth="yes"/>
      <point x="307" y="675"/>
      <point x="346" y="658"/>
      <point x="374" y="609" type="curve" smooth="yes"/>
      <point x="379" y="601"/>
      <point x="387" y="594"/>
      <point x="401" y="594" type="curve" smooth="yes"/>
      <point x="417" y="594"/>
      <point x="443" y="605"/>
      <point x="443" y="636" type="curve" smooth="yes"/>
      <point x="443" y="679"/>
      <point x="387" y="715"/>
      <point x="319" y="715" type="curve" smooth="yes"/>
      <point x="207" y="715"/>
      <point x="146" y="631"/>
      <point x="125" y="580" type="curve" smooth="yes"/>
      <point x="102" y="526"/>
      <point x="94" y="469"/>
      <point x="94" y="412" type="curve" smooth="yes"/>
      <point x="94" y="403"/>
      <point x="87" y="396"/>
      <point x="80" y="392" type="curve" smooth="yes"/>
      <point x="61" y="382"/>
      <point x="43" y="380"/>
      <point x="37" y="374" type="curve"/>
      <point x="29" y="369"/>
      <point x="32" y="355"/>
      <point x="39" y="351" type="curve"/>
      <point x="73" y="348" type="line" smooth="yes"/>
      <point x="89" y="346"/>
      <point x="94" y="339"/>
      <point x="94" y="321" type="curve" smooth="yes"/>
      <point x="94" y="113" type="line" smooth="yes"/>
      <point x="94" y="41"/>
      <point x="93" y="33"/>
      <point x="57" y="28" type="curve" smooth="yes"/>
      <point x="34" y="25" type="line"/>
      <point x="26" y="21"/>
      <point x="26" y="11"/>
      <point x="28" y="4" type="curve"/>
      <point x="31" y="-4"/>
      <point x="35" y="-4"/>
      <point x="43" y="-4" type="curve"/>
      <point x="71" y="-2"/>
      <point x="98" y="-1"/>
      <point x="131" y="-1" type="curve" smooth="yes"/>
      <point x="165" y="-1"/>
      <point x="195" y="-2"/>
      <point x="237" y="-4" type="curve"/>
      <point x="246" y="-1"/>
      <point x="251" y="23"/>
      <point x="239" y="25" type="curve"/>
      <point x="207" y="28" type="line" smooth="yes"/>
      <point x="172" y="32"/>
      <point x="170" y="41"/>
      <point x="170" y="113" type="curve" smooth="yes"/>
      <point x="170" y="321" type="line" smooth="yes"/>
      <point x="170" y="345"/>
      <point x="176" y="350"/>
      <point x="192" y="351" type="curve" smooth="yes"/>
      <point x="220" y="352"/>
      <point x="282" y="353"/>
      <point x="312" y="351" type="curve"/>
      <point x="354" y="351"/>
      <point x="360" y="347"/>
      <point x="360" y="286" type="curve" smooth="yes"/>
      <point x="360" y="113" type="line" smooth="yes"/>
      <point x="360" y="41"/>
      <point x="359" y="33"/>
      <point x="324" y="28" type="curve" smooth="yes"/>
      <point x="306" y="26"/>
      <point x="292" y="27"/>
      <point x="299" y="5" type="curve" smooth="yes"/>
      <point x="302" y="-5"/>
      <point x="306" y="-3"/>
      <point x="315" y="-2" type="curve"/>
      <point x="340" y="-1"/>
      <point x="367" y="-2"/>
      <point x="398" y="-2" type="curve" smooth="yes"/>
      <point x="433" y="-2"/>
      <point x="463" y="-2"/>
    </contour>
  </outline>
</glyph>
<glyph name="X" format="2">
  <advance width="522"/>
  <unicode hex="0058"/>
  <outline>
    <contour>
      <point x="224" y="28" type="curve"/>
      <point x="174" y="28"/>
      <point x="162" y="39"/>
      <point x="162" y="88" type="curve" smooth="yes"/>
      <point x="162" y="333" type="line" smooth="yes"/>
      <point x="162" y="344"/>
      <point x="172" y="352"/>
      <point x="180" y="353" type="curve" smooth="yes"/>
      <point x="223" y="357"/>
      <point x="299" y="354"/>
      <point x="350" y="353" type="curve" smooth="yes"/>
      <point x="358" y="353"/>
      <point x="369" y="349"/>
      <point x="369" y="336" type="curve"/>
      <point x="368" y="133" type="line"/>
      <point x="368" y="29"/>
      <point x="365" y="28"/>
      <point x="303" y="28" type="curve" smooth="yes"/>
      <point x="295" y="28" type="line"/>
      <point x="286" y="27"/>
      <point x="285" y="12"/>
      <point x="288" y="3" type="curve"/>
      <point x="290" y="-2"/>
      <point x="292" y="-3"/>
      <point x="297" y="-3" type="curve" smooth="yes"/>
      <point x="298" y="-3"/>
      <point x="299" y="-3"/>
      <point x="301" y="-3" type="curve" smooth="yes"/>
      <point x="355" y="-1"/>
      <point x="454" y="-1"/>
      <point x="502" y="-3" type="curve" smooth="yes"/>
      <point x="504" y="-3"/>
      <point x="506" y="-3"/>
      <point x="507" y="-3" type="curve" smooth="yes"/>
      <point x="512" y="-3"/>
      <point x="513" y="-1"/>
      <point x="514" y="3" type="curve"/>
      <point x="517" y="12"/>
      <point x="515" y="27"/>
      <point x="509" y="28" type="curve"/>
      <point x="505" y="29"/>
      <point x="500" y="30"/>
      <point x="496" y="28" type="curve"/>
      <point x="447" y="28"/>
      <point x="445" y="37"/>
      <point x="445" y="88" type="curve" smooth="yes"/>
      <point x="445" y="716" type="line"/>
      <point x="443" y="724"/>
      <point x="429" y="731"/>
      <point x="418" y="727" type="curve"/>
      <point x="403" y="708"/>
      <point x="391" y="703"/>
      <point x="372" y="703" type="curve" smooth="yes"/>
      <point x="351" y="703"/>
      <point x="330" y="710"/>
      <point x="309" y="710" type="curve" smooth="yes"/>
      <point x="249" y="710"/>
      <point x="204" y="686"/>
      <point x="160" y="637" type="curve" smooth="yes"/>
      <point x="107" y="579"/>
      <point x="90" y="492"/>
      <point x="85" y="415" type="curve"/>
      <point x="85" y="410"/>
      <point x="82" y="405"/>
      <point x="78" y="403" type="curve"/>
      <point x="65" y="394"/>
      <point x="46" y="388"/>
      <point x="32" y="384" type="curve"/>
      <point x="31" y="383"/>
      <point x="19" y="377"/>
      <point x="17" y="373" type="curve"/>
      <point x="16" y="369"/>
      <point x="16" y="363"/>
      <point x="17" y="359" type="curve"/>
      <point x="18" y="356"/>
      <point x="22" y="351"/>
      <point x="28" y="351" type="curve"/>
      <point x="69" y="348" type="line"/>
      <point x="76" y="347"/>
      <point x="85" y="343"/>
      <point x="85" y="330" type="curve" smooth="yes"/>
      <point x="85" y="133" type="line" smooth="yes"/>
      <point x="85" y="63"/>
      <point x="83" y="55"/>
      <point x="74" y="43" type="curve"/>
      <point x="68" y="34"/>
      <point x="62" y="31"/>
      <point x="30" y="28" type="curve"/>
      <point x="25" y="28"/>
      <point x="19" y="29"/>
      <point x="17" y="23" type="curve"/>
      <point x="14" y="17"/>
      <point x="13" y="8"/>
      <point x="17" y="2" type="curve" smooth="yes"/>
      <point x="20" y="-3"/>
      <point x="25" y="-4"/>
      <point x="30" y="-3" type="curve"/>
      <point x="89" y="1"/>
      <point x="184" y="-1"/>
      <point x="230" y="-3" type="curve" smooth="yes"/>
      <point x="233" y="-3" type="line" smooth="yes"/>
      <point x="234" y="-3"/>
      <point x="235" y="-3"/>
      <point x="236" y="-3" type="curve"/>
      <point x="245" y="-1"/>
      <point x="244" y="27"/>
      <point x="234" y="28" type="curve"/>
      <point x="231" y="29"/>
      <point x="227" y="29"/>
    </contour>
    <contour>
      <point x="368" y="625" type="curve"/>
      <point x="368" y="430" type="line"/>
      <point x="367" y="417"/>
      <point x="359" y="408"/>
      <point x="349" y="408" type="curve" smooth="yes"/>
      <point x="310" y="408"/>
      <point x="248" y="404"/>
      <point x="187" y="406" type="curve"/>
      <point x="179" y="407"/>
      <point x="162" y="407"/>
      <point x="162" y="418" type="curve" smooth="yes"/>
      <point x="162" y="522"/>
      <point x="180" y="594"/>
      <point x="203" y="625" type="curve" smooth="yes"/>
      <point x="219" y="647"/>
      <point x="240" y="663"/>
      <point x="267" y="663" type="curve" smooth="yes"/>
      <point x="297" y="663"/>
      <point x="334" y="648"/>
    </contour>
  </outline>
</glyph>
<glyph name="Y" format="2">
  <advance width="876"/>
  <unicode hex="0059"/>
  <outline>
    <contour>
      <point x="194" y="324" type="curve"/>
      <point x="196" y="335"/>
      <point x="201" y="345"/>
      <point x="210" y="346" type="curve" smooth="yes"/>
      <point x="241" y="350"/>
      <point x="342" y="350"/>
      <point x="390" y="347" type="curve" smooth="yes"/>
      <point x="400" y="346"/>
      <point x="407" y="329"/>
      <point x="408" y="321" type="curve"/>
      <point x="408" y="130" type="line" smooth="yes"/>
      <point x="408" y="34"/>
      <point x="403" y="31"/>
      <point x="355" y="31" type="curve"/>
      <point x="342" y="29"/>
      <point x="337" y="24"/>
      <point x="337" y="10" type="curve" smooth="yes"/>
      <point x="337" y="1"/>
      <point x="346" y="-5"/>
      <point x="356" y="-5" type="curve" smooth="yes"/>
      <point x="422" y="-3"/>
      <point x="465" y="-2"/>
      <point x="556" y="-4" type="curve" smooth="yes"/>
      <point x="570" y="-4"/>
      <point x="582" y="-4"/>
      <point x="582" y="12" type="curve"/>
      <point x="581" y="25"/>
      <point x="576" y="32"/>
      <point x="561" y="32" type="curve"/>
      <point x="545" y="31" type="line"/>
      <point x="489" y="33"/>
      <point x="487" y="62"/>
      <point x="488" y="132" type="curve" smooth="yes"/>
      <point x="489" y="324" type="line"/>
      <point x="490" y="335"/>
      <point x="494" y="353"/>
      <point x="510" y="353" type="curve"/>
      <point x="551" y="356"/>
      <point x="612" y="355"/>
      <point x="644" y="354" type="curve" smooth="yes"/>
      <point x="691" y="353"/>
      <point x="705" y="341"/>
      <point x="705" y="276" type="curve" smooth="yes"/>
      <point x="705" y="132" type="line" smooth="yes"/>
      <point x="705" y="46"/>
      <point x="702" y="31"/>
      <point x="656" y="31" type="curve" smooth="yes"/>
      <point x="653" y="31"/>
      <point x="632" y="35"/>
      <point x="631" y="12" type="curve"/>
      <point x="631" y="-1"/>
      <point x="643" y="-4"/>
      <point x="654" y="-4" type="curve" smooth="yes"/>
      <point x="716" y="-2"/>
      <point x="774" y="-2"/>
      <point x="826" y="-3" type="curve"/>
      <point x="837" y="-4"/>
      <point x="850" y="-5"/>
      <point x="852" y="8" type="curve"/>
      <point x="853" y="18"/>
      <point x="847" y="31"/>
      <point x="842" y="32" type="curve" smooth="yes"/>
      <point x="838" y="33"/>
      <point x="832" y="33"/>
      <point x="828" y="32" type="curve"/>
      <point x="790" y="32"/>
      <point x="779" y="43"/>
      <point x="780" y="88" type="curve" smooth="yes"/>
      <point x="780" y="164"/>
      <point x="775" y="321"/>
      <point x="783" y="392" type="curve"/>
      <point x="783" y="413"/>
      <point x="782" y="426"/>
      <point x="761" y="419" type="curve" smooth="yes"/>
      <point x="716" y="403"/>
      <point x="709" y="405"/>
      <point x="679" y="404" type="curve" smooth="yes"/>
      <point x="629" y="402"/>
      <point x="550" y="399"/>
      <point x="505" y="405" type="curve" smooth="yes"/>
      <point x="494" y="406"/>
      <point x="488" y="423"/>
      <point x="488" y="432" type="curve" smooth="yes"/>
      <point x="488" y="507"/>
      <point x="489" y="541"/>
      <point x="495" y="565" type="curve" smooth="yes"/>
      <point x="507" y="621"/>
      <point x="563" y="668"/>
      <point x="618" y="668" type="curve" smooth="yes"/>
      <point x="654" y="668"/>
      <point x="679" y="662"/>
      <point x="711" y="632" type="curve" smooth="yes"/>
      <point x="721" y="622"/>
      <point x="727" y="618"/>
      <point x="735" y="618" type="curve" smooth="yes"/>
      <point x="750" y="618"/>
      <point x="786" y="651"/>
      <point x="786" y="666" type="curve" smooth="yes"/>
      <point x="786" y="675"/>
      <point x="781" y="681"/>
      <point x="771" y="690" type="curve" smooth="yes"/>
      <point x="700" y="749"/>
      <point x="588" y="716"/>
      <point x="518" y="665" type="curve" smooth="yes"/>
      <point x="513" y="661"/>
      <point x="495" y="653"/>
      <point x="478" y="673" type="curve"/>
      <point x="399" y="739"/>
      <point x="270" y="691"/>
      <point x="203" y="631" type="curve" smooth="yes"/>
      <point x="151" y="584"/>
      <point x="128" y="549"/>
      <point x="120" y="481" type="curve" smooth="yes"/>
      <point x="118" y="462"/>
      <point x="117" y="429"/>
      <point x="114" y="402" type="curve"/>
      <point x="91" y="387"/>
      <point x="74" y="383"/>
      <point x="48" y="378" type="curve"/>
      <point x="45" y="377"/>
      <point x="39" y="375"/>
      <point x="36" y="372" type="curve"/>
      <point x="33" y="368"/>
      <point x="33" y="358"/>
      <point x="35" y="352" type="curve" smooth="yes"/>
      <point x="38" y="343"/>
      <point x="47" y="346"/>
      <point x="55" y="345" type="curve"/>
      <point x="97" y="342" type="line"/>
      <point x="102" y="342"/>
      <point x="114" y="328"/>
      <point x="114" y="319" type="curve" smooth="yes"/>
      <point x="114" y="92" type="line" smooth="yes"/>
      <point x="114" y="42"/>
      <point x="100" y="29"/>
      <point x="53" y="29" type="curve" smooth="yes"/>
      <point x="52" y="29"/>
      <point x="48" y="30"/>
      <point x="43" y="29" type="curve" smooth="yes"/>
      <point x="31" y="26"/>
      <point x="29" y="14"/>
      <point x="32" y="5" type="curve"/>
      <point x="35" y="-6"/>
      <point x="48" y="-5"/>
      <point x="58" y="-4" type="curve"/>
      <point x="122" y="-2"/>
      <point x="159" y="-2"/>
      <point x="246" y="-4" type="curve" smooth="yes"/>
      <point x="260" y="-5"/>
      <point x="282" y="-8"/>
      <point x="285" y="7" type="curve"/>
      <point x="286" y="16"/>
      <point x="284" y="29"/>
      <point x="277" y="32" type="curve"/>
      <point x="268" y="34"/>
      <point x="258" y="32"/>
      <point x="248" y="32" type="curve" smooth="yes"/>
      <point x="203" y="32"/>
      <point x="196" y="43"/>
      <point x="195" y="86" type="curve" smooth="yes"/>
      <point x="192" y="168"/>
      <point x="194" y="245"/>
    </contour>
    <contour>
      <point x="421" y="615" type="curve" smooth="yes"/>
      <point x="429" y="608"/>
      <point x="443" y="595"/>
      <point x="437" y="583" type="curve" smooth="yes"/>
      <point x="419" y="549"/>
      <point x="413" y="513"/>
      <point x="411" y="465" type="curve" smooth="yes"/>
      <point x="410" y="448"/>
      <point x="413" y="405"/>
      <point x="390" y="403" type="curve" smooth="yes"/>
      <point x="285" y="395"/>
      <point x="230" y="401"/>
      <point x="208" y="402" type="curve"/>
      <point x="198" y="403"/>
      <point x="194" y="418"/>
      <point x="194" y="425" type="curve" smooth="yes"/>
      <point x="194" y="501"/>
      <point x="196" y="524"/>
      <point x="201" y="549" type="curve" smooth="yes"/>
      <point x="214" y="605"/>
      <point x="266" y="651"/>
      <point x="321" y="651" type="curve" smooth="yes"/>
      <point x="358" y="651"/>
      <point x="389" y="645"/>
    </contour>
  </outline>
</glyph>
<glyph name="bracketleft" format="2">
  <advance width="337"/>
  <unicode hex="005B"/>
  <outline>
    <contour>
      <point x="253" y="-229" type="curve"/>
      <point x="260" y="-229"/>
      <point x="272" y="-228"/>
      <point x="272" y="-220" type="curve" smooth="yes"/>
      <point x="272" y="-209" type="line" smooth="yes"/>
      <point x="272" y="-200"/>
      <point x="270" y="-199"/>
      <point x="261" y="-198" type="curve" smooth="yes"/>
      <point x="237" y="-196" type="line" smooth="yes"/>
      <point x="188" y="-192"/>
      <point x="184" y="-189"/>
      <point x="184" y="-162" type="curve" smooth="yes"/>
      <point x="182" y="35"/>
      <point x="182" y="408"/>
      <point x="184" y="621" type="curve" smooth="yes"/>
      <point x="184" y="638"/>
      <point x="188" y="646"/>
      <point x="196" y="651" type="curve"/>
      <point x="209" y="658"/>
      <point x="251" y="659"/>
      <point x="264" y="660" type="curve"/>
      <point x="270" y="660"/>
      <point x="272" y="662"/>
      <point x="272" y="668" type="curve" smooth="yes"/>
      <point x="272" y="683" type="line" smooth="yes"/>
      <point x="272" y="691"/>
      <point x="260" y="690"/>
      <point x="254" y="690" type="curve" smooth="yes"/>
      <point x="220" y="691"/>
      <point x="158" y="693"/>
      <point x="126" y="690" type="curve" smooth="yes"/>
      <point x="109" y="689"/>
      <point x="104" y="683"/>
      <point x="104" y="664" type="curve"/>
      <point x="101" y="446"/>
      <point x="101" y="9"/>
      <point x="104" y="-209" type="curve" smooth="yes"/>
      <point x="104" y="-223"/>
      <point x="112" y="-228"/>
      <point x="127" y="-229" type="curve" smooth="yes"/>
      <point x="160" y="-230"/>
      <point x="220" y="-231"/>
    </contour>
  </outline>
</glyph>
<glyph name="backslash" format="2">
  <advance width="100"/>
  <unicode hex="005C"/>
  <outline>
    <contour>
      <point x="252" y="-40" type="curve"/>
      <point x="108" y="183"/>
      <point x="-36" y="405"/>
      <point x="-184" y="628" type="curve"/>
      <point x="-190" y="643"/>
      <point x="-162" y="669"/>
      <point x="-149" y="654" type="curve"/>
      <point x="-7" y="432"/>
      <point x="137" y="211"/>
      <point x="283" y="-11" type="curve" smooth="yes"/>
      <point x="291" y="-24"/>
      <point x="271" y="-51"/>
    </contour>
  </outline>
</glyph>
<glyph name="grave" format="2">
  <advance width="348"/>
  <unicode hex="0060"/>
  <outline>
    <contour>
      <point x="229" y="562" type="curve"/>
      <point x="219" y="605"/>
      <point x="197" y="680"/>
      <point x="180" y="725" type="curve"/>
      <point x="175" y="733"/>
      <point x="170" y="733"/>
      <point x="161" y="733" type="curve" smooth="yes"/>
      <point x="84" y="732" type="line" smooth="yes"/>
      <point x="72" y="732"/>
      <point x="64" y="719"/>
      <point x="70" y="713" type="curve" smooth="yes"/>
      <point x="113" y="666"/>
      <point x="172" y="597"/>
      <point x="204" y="555" type="curve"/>
      <point x="212" y="548"/>
      <point x="230" y="549"/>
    </contour>
  </outline>
</glyph>
<glyph name="dieresis" format="2">
  <advance width="348"/>
  <unicode hex="00A8"/>
  <outline>
    <contour>
      <point x="324" y="616" type="curve" smooth="yes"/>
      <point x="324" y="649"/>
      <point x="297" y="676"/>
      <point x="263" y="676" type="curve" smooth="yes"/>
      <point x="230" y="676"/>
      <point x="203" y="649"/>
      <point x="203" y="616" type="curve" smooth="yes"/>
      <point x="203" y="583"/>
      <point x="230" y="556"/>
      <point x="263" y="556" type="curve" smooth="yes"/>
      <point x="297" y="556"/>
      <point x="324" y="583"/>
    </contour>
    <contour>
      <point x="146" y="616" type="curve" smooth="yes"/>
      <point x="146" y="649"/>
      <point x="119" y="676"/>
      <point x="86" y="676" type="curve" smooth="yes"/>
      <point x="53" y="676"/>
      <point x="26" y="649"/>
      <point x="26" y="616" type="curve" smooth="yes"/>
      <point x="26" y="582"/>
      <point x="53" y="556"/>
      <point x="86" y="556" type="curve" smooth="yes"/>
      <point x="119" y="556"/>
      <point x="146" y="582"/>
    </contour>
  </outline>
</glyph>
<glyph name="registered" format="2">
  <advance width="510"/>
  <unicode hex="00AE"/>
  <outline>
    <contour>
      <point x="252" y="325" type="curve" smooth="yes"/>
      <point x="355" y="325"/>
      <point x="438" y="409"/>
      <point x="438" y="513" type="curve" smooth="yes"/>
      <point x="438" y="616"/>
      <point x="355" y="700"/>
      <point x="252" y="700" type="curve" smooth="yes"/>
      <point x="149" y="700"/>
      <point x="67" y="616"/>
      <point x="67" y="513" type="curve" smooth="yes"/>
      <point x="67" y="409"/>
      <point x="149" y="325"/>
    </contour>
    <contour>
      <point x="252" y="674" type="curve" smooth="yes"/>
      <point x="341" y="674"/>
      <point x="413" y="602"/>
      <point x="413" y="513" type="curve" smooth="yes"/>
      <point x="413" y="423"/>
      <point x="341" y="351"/>
      <point x="252" y="351" type="curve" smooth="yes"/>
      <point x="163" y="351"/>
      <point x="92" y="423"/>
      <point x="92" y="513" type="curve" smooth="yes"/>
      <point x="92" y="602"/>
      <point x="163" y="674"/>
    </contour>
    <contour>
      <point x="350" y="403" type="curve" smooth="yes"/>
      <point x="354" y="403"/>
      <point x="358" y="403"/>
      <point x="358" y="409" type="curve" smooth="yes"/>
      <point x="358" y="416" type="line"/>
      <point x="358" y="416"/>
      <point x="356" y="421"/>
      <point x="353" y="421" type="curve"/>
      <point x="343" y="422"/>
      <point x="338" y="426"/>
      <point x="328" y="441" type="curve" smooth="yes"/>
      <point x="282" y="506" type="line"/>
      <point x="280" y="508"/>
      <point x="281" y="509"/>
      <point x="282" y="509" type="curve"/>
      <point x="314" y="520"/>
      <point x="331" y="538"/>
      <point x="331" y="566" type="curve" smooth="yes"/>
      <point x="331" y="602"/>
      <point x="299" y="625"/>
      <point x="255" y="625" type="curve" smooth="yes"/>
      <point x="232" y="625"/>
      <point x="186" y="624"/>
      <point x="165" y="625" type="curve" smooth="yes"/>
      <point x="161" y="625"/>
      <point x="156" y="625"/>
      <point x="156" y="620" type="curve"/>
      <point x="156" y="620"/>
      <point x="156" y="619"/>
      <point x="156" y="618" type="curve" smooth="yes"/>
      <point x="156" y="614" type="line" smooth="yes"/>
      <point x="156" y="609"/>
      <point x="160" y="608"/>
      <point x="163" y="608" type="curve"/>
      <point x="177" y="607"/>
      <point x="179" y="605"/>
      <point x="179" y="579" type="curve" smooth="yes"/>
      <point x="179" y="450" type="line" smooth="yes"/>
      <point x="179" y="424"/>
      <point x="177" y="422"/>
      <point x="161" y="421" type="curve"/>
      <point x="158" y="421"/>
      <point x="154" y="420"/>
      <point x="154" y="416" type="curve" smooth="yes"/>
      <point x="154" y="409" type="line" smooth="yes"/>
      <point x="154" y="404"/>
      <point x="160" y="403"/>
      <point x="161" y="403" type="curve"/>
      <point x="182" y="405"/>
      <point x="219" y="405"/>
      <point x="244" y="403" type="curve"/>
      <point x="247" y="403"/>
      <point x="252" y="406"/>
      <point x="252" y="410" type="curve" smooth="yes"/>
      <point x="252" y="415" type="line" smooth="yes"/>
      <point x="252" y="419"/>
      <point x="251" y="421"/>
      <point x="247" y="421" type="curve" smooth="yes"/>
      <point x="226" y="422"/>
      <point x="223" y="426"/>
      <point x="223" y="431" type="curve" smooth="yes"/>
      <point x="223" y="450" type="line"/>
      <point x="223" y="496" type="line" smooth="yes"/>
      <point x="223" y="500"/>
      <point x="223" y="503"/>
      <point x="226" y="503" type="curve" smooth="yes"/>
      <point x="234" y="503" type="line"/>
      <point x="303" y="407" type="line"/>
      <point x="305" y="405"/>
      <point x="307" y="403"/>
      <point x="311" y="403" type="curve"/>
      <point x="322" y="402"/>
      <point x="342" y="403"/>
    </contour>
    <contour>
      <point x="239" y="605" type="curve" smooth="yes"/>
      <point x="265" y="605"/>
      <point x="283" y="587"/>
      <point x="283" y="563" type="curve" smooth="yes"/>
      <point x="283" y="538"/>
      <point x="264" y="522"/>
      <point x="226" y="522" type="curve" smooth="yes"/>
      <point x="223" y="522"/>
      <point x="223" y="527"/>
      <point x="223" y="529" type="curve" smooth="yes"/>
      <point x="223" y="603" type="line"/>
      <point x="230" y="605"/>
      <point x="233" y="605"/>
    </contour>
  </outline>
</glyph>
<glyph name="onequarter" format="2">
  <advance width="721"/>
  <unicode hex="00BC"/>
  <outline>
    <contour>
      <point x="695" y="95" type="curve" smooth="yes"/>
      <point x="696" y="100"/>
      <point x="695" y="105"/>
      <point x="695" y="108" type="curve" smooth="yes"/>
      <point x="695" y="127"/>
      <point x="694" y="133"/>
      <point x="685" y="132" type="curve"/>
      <point x="642" y="132" type="line" smooth="yes"/>
      <point x="635" y="132"/>
      <point x="633" y="139"/>
      <point x="633" y="142" type="curve" smooth="yes"/>
      <point x="633" y="328" type="line"/>
      <point x="634" y="335"/>
      <point x="623" y="339"/>
      <point x="618" y="340" type="curve" smooth="yes"/>
      <point x="606" y="342"/>
      <point x="606" y="341"/>
      <point x="596" y="338" type="curve"/>
      <point x="543" y="274"/>
      <point x="461" y="168"/>
      <point x="419" y="111" type="curve"/>
      <point x="419" y="98" type="line" smooth="yes"/>
      <point x="419" y="94"/>
      <point x="421" y="86"/>
      <point x="431" y="86" type="curve" smooth="yes"/>
      <point x="463" y="85"/>
      <point x="518" y="83"/>
      <point x="553" y="86" type="curve"/>
      <point x="561" y="85"/>
      <point x="565" y="83"/>
      <point x="567" y="77" type="curve"/>
      <point x="567" y="-2" type="line"/>
      <point x="569" y="-10"/>
      <point x="574" y="-14"/>
      <point x="584" y="-15" type="curve"/>
      <point x="590" y="-17"/>
      <point x="612" y="-15"/>
      <point x="618" y="-15" type="curve" smooth="yes"/>
      <point x="627" y="-15"/>
      <point x="632" y="-11"/>
      <point x="633" y="0" type="curve"/>
      <point x="633" y="67" type="line"/>
      <point x="636" y="77"/>
      <point x="635" y="85"/>
      <point x="644" y="86" type="curve"/>
      <point x="689" y="86" type="line" smooth="yes"/>
      <point x="692" y="86"/>
      <point x="694" y="90"/>
    </contour>
    <contour>
      <point x="152" y="-22" type="curve" smooth="yes"/>
      <point x="620" y="641" type="line" smooth="yes"/>
      <point x="625" y="648"/>
      <point x="622" y="656"/>
      <point x="613" y="657" type="curve" smooth="yes"/>
      <point x="586" y="660" type="line" smooth="yes"/>
      <point x="577" y="661"/>
      <point x="572" y="657"/>
      <point x="567" y="650" type="curve" smooth="yes"/>
      <point x="99" y="-13" type="line"/>
      <point x="94" y="-21"/>
      <point x="93" y="-33"/>
      <point x="106" y="-34" type="curve" smooth="yes"/>
      <point x="133" y="-36" type="line"/>
      <point x="143" y="-36"/>
      <point x="147" y="-29"/>
    </contour>
    <contour>
      <point x="243" y="298" type="curve" smooth="yes"/>
      <point x="246" y="298"/>
      <point x="251" y="305"/>
      <point x="251" y="314" type="curve"/>
      <point x="250" y="322"/>
      <point x="246" y="332"/>
      <point x="244" y="332" type="curve" smooth="yes"/>
      <point x="214" y="333" type="line" smooth="yes"/>
      <point x="199" y="333"/>
      <point x="194" y="342"/>
      <point x="194" y="355" type="curve" smooth="yes"/>
      <point x="195" y="412"/>
      <point x="197" y="549"/>
      <point x="194" y="640" type="curve" smooth="yes"/>
      <point x="194" y="647"/>
      <point x="156" y="646"/>
      <point x="152" y="642" type="curve"/>
      <point x="132" y="618"/>
      <point x="89" y="585"/>
      <point x="49" y="561" type="curve"/>
      <point x="43" y="554"/>
      <point x="50" y="537"/>
      <point x="63" y="538" type="curve"/>
      <point x="75" y="542"/>
      <point x="84" y="546"/>
      <point x="93" y="549" type="curve"/>
      <point x="102" y="553"/>
      <point x="111" y="558"/>
      <point x="122" y="565" type="curve"/>
      <point x="124" y="566"/>
      <point x="128" y="565"/>
      <point x="128" y="560" type="curve"/>
      <point x="132" y="529"/>
      <point x="129" y="405"/>
      <point x="128" y="355" type="curve"/>
      <point x="128" y="341"/>
      <point x="120" y="333"/>
      <point x="108" y="332" type="curve" smooth="yes"/>
      <point x="80" y="330" type="line"/>
      <point x="76" y="329"/>
      <point x="73" y="321"/>
      <point x="72" y="314" type="curve"/>
      <point x="72" y="306"/>
      <point x="75" y="298"/>
      <point x="80" y="298" type="curve" smooth="yes"/>
      <point x="132" y="300"/>
      <point x="190" y="300"/>
    </contour>
    <contour>
      <point x="570" y="230" type="curve"/>
      <point x="567" y="148" type="line"/>
      <point x="567" y="144"/>
      <point x="566" y="133"/>
      <point x="560" y="132" type="curve"/>
      <point x="543" y="132"/>
      <point x="513" y="131"/>
      <point x="495" y="132" type="curve"/>
      <point x="490" y="132"/>
      <point x="485" y="134"/>
      <point x="487" y="138" type="curve"/>
      <point x="506" y="164"/>
      <point x="544" y="214"/>
      <point x="567" y="241" type="curve"/>
      <point x="572" y="243"/>
      <point x="569" y="235"/>
    </contour>
  </outline>
</glyph>
<glyph name="onehalf" format="2">
  <advance width="727"/>
  <unicode hex="00BD"/>
  <outline>
    <contour>
      <point x="670" y="-7" type="curve"/>
      <point x="681" y="-5"/>
      <point x="684" y="3"/>
      <point x="686" y="6" type="curve"/>
      <point x="691" y="29"/>
      <point x="697" y="61"/>
      <point x="698" y="81" type="curve" smooth="yes"/>
      <point x="698" y="84"/>
      <point x="690" y="87"/>
      <point x="680" y="87" type="curve" smooth="yes"/>
      <point x="670" y="87"/>
      <point x="662" y="85"/>
      <point x="662" y="82" type="curve"/>
      <point x="657" y="62"/>
      <point x="655" y="54"/>
      <point x="650" y="51" type="curve"/>
      <point x="643" y="46"/>
      <point x="621" y="47"/>
      <point x="612" y="47" type="curve"/>
      <point x="588" y="45"/>
      <point x="556" y="45"/>
      <point x="523" y="47" type="curve"/>
      <point x="520" y="47"/>
      <point x="509" y="50"/>
      <point x="513" y="54" type="curve"/>
      <point x="544" y="81"/>
      <point x="562" y="94"/>
      <point x="587" y="111" type="curve" smooth="yes"/>
      <point x="632" y="143"/>
      <point x="686" y="174"/>
      <point x="686" y="238" type="curve" smooth="yes"/>
      <point x="686" y="297"/>
      <point x="631" y="339"/>
      <point x="565" y="339" type="curve" smooth="yes"/>
      <point x="494" y="339"/>
      <point x="440" y="295"/>
      <point x="433" y="223" type="curve"/>
      <point x="433" y="215"/>
      <point x="465" y="216"/>
      <point x="467" y="222" type="curve" smooth="yes"/>
      <point x="481" y="264"/>
      <point x="512" y="288"/>
      <point x="548" y="288" type="curve" smooth="yes"/>
      <point x="585" y="288"/>
      <point x="613" y="264"/>
      <point x="613" y="232" type="curve" smooth="yes"/>
      <point x="613" y="177"/>
      <point x="548" y="128"/>
      <point x="509" y="95" type="curve" smooth="yes"/>
      <point x="467" y="59"/>
      <point x="446" y="38"/>
      <point x="430" y="19" type="curve"/>
      <point x="426" y="15"/>
      <point x="427" y="5"/>
      <point x="427" y="1" type="curve"/>
      <point x="426" y="-5"/>
      <point x="434" y="-7"/>
      <point x="440" y="-7" type="curve" smooth="yes"/>
      <point x="502" y="-8"/>
      <point x="608" y="-8"/>
    </contour>
    <contour>
      <point x="156" y="-17" type="curve" smooth="yes"/>
      <point x="615" y="631" type="line"/>
      <point x="619" y="638"/>
      <point x="626" y="656"/>
      <point x="611" y="658" type="curve" smooth="yes"/>
      <point x="589" y="660" type="line" smooth="yes"/>
      <point x="581" y="661"/>
      <point x="575" y="660"/>
      <point x="570" y="654" type="curve"/>
      <point x="100" y="-11" type="line"/>
      <point x="95" y="-19"/>
      <point x="94" y="-33"/>
      <point x="106" y="-34" type="curve" smooth="yes"/>
      <point x="135" y="-36" type="line"/>
      <point x="144" y="-36"/>
      <point x="152" y="-23"/>
    </contour>
    <contour>
      <point x="243" y="298" type="curve" smooth="yes"/>
      <point x="246" y="298"/>
      <point x="251" y="306"/>
      <point x="251" y="315" type="curve" smooth="yes"/>
      <point x="251" y="323"/>
      <point x="248" y="331"/>
      <point x="243" y="332" type="curve"/>
      <point x="215" y="334" type="line" smooth="yes"/>
      <point x="201" y="335"/>
      <point x="194" y="346"/>
      <point x="194" y="360" type="curve" smooth="yes"/>
      <point x="194" y="640" type="line" smooth="yes"/>
      <point x="194" y="647"/>
      <point x="156" y="646"/>
      <point x="152" y="642" type="curve"/>
      <point x="132" y="618"/>
      <point x="89" y="585"/>
      <point x="49" y="561" type="curve"/>
      <point x="43" y="553"/>
      <point x="50" y="537"/>
      <point x="63" y="538" type="curve"/>
      <point x="75" y="542"/>
      <point x="85" y="546"/>
      <point x="94" y="550" type="curve" smooth="yes"/>
      <point x="104" y="555"/>
      <point x="114" y="560"/>
      <point x="126" y="567" type="curve"/>
      <point x="128" y="568"/>
      <point x="128" y="561"/>
      <point x="128" y="559" type="curve" smooth="yes"/>
      <point x="128" y="355" type="line" smooth="yes"/>
      <point x="128" y="343"/>
      <point x="121" y="334"/>
      <point x="116" y="333" type="curve"/>
      <point x="80" y="331" type="line"/>
      <point x="76" y="330"/>
      <point x="72" y="321"/>
      <point x="71" y="314" type="curve"/>
      <point x="71" y="306"/>
      <point x="75" y="298"/>
      <point x="80" y="298" type="curve" smooth="yes"/>
      <point x="132" y="300"/>
      <point x="190" y="300"/>
    </contour>
  </outline>
</glyph>
<glyph name="questiondown" format="2">
  <advance width="371"/>
  <unicode hex="00BF"/>
  <outline>
    <contour>
      <point x="217" y="372" type="curve" smooth="yes"/>
      <point x="250" y="372"/>
      <point x="276" y="396"/>
      <point x="276" y="429" type="curve" smooth="yes"/>
      <point x="276" y="461"/>
      <point x="250" y="484"/>
      <point x="217" y="484" type="curve" smooth="yes"/>
      <point x="183" y="484"/>
      <point x="158" y="460"/>
      <point x="158" y="429" type="curve" smooth="yes"/>
      <point x="158" y="396"/>
      <point x="183" y="372"/>
    </contour>
    <contour>
      <point x="234" y="-199" type="curve" smooth="yes"/>
      <point x="290" y="-199"/>
      <point x="330" y="-182"/>
      <point x="330" y="-144" type="curve" smooth="yes"/>
      <point x="330" y="-114"/>
      <point x="304" y="-101"/>
      <point x="264" y="-101" type="curve" smooth="yes"/>
      <point x="238" y="-101"/>
      <point x="215" y="-108"/>
      <point x="186" y="-108" type="curve" smooth="yes"/>
      <point x="122" y="-108"/>
      <point x="86" y="-75"/>
      <point x="86" y="-22" type="curve" smooth="yes"/>
      <point x="86" y="31"/>
      <point x="111" y="57"/>
      <point x="201" y="91" type="curve" smooth="yes"/>
      <point x="258" y="113"/>
      <point x="281" y="138"/>
      <point x="281" y="187" type="curve" smooth="yes"/>
      <point x="281" y="221"/>
      <point x="265" y="255"/>
      <point x="229" y="299" type="curve"/>
      <point x="224" y="307"/>
      <point x="207" y="310"/>
      <point x="198" y="306" type="curve" smooth="yes"/>
      <point x="196" y="305"/>
      <point x="188" y="300"/>
      <point x="196" y="291" type="curve" smooth="yes"/>
      <point x="231" y="251"/>
      <point x="235" y="240"/>
      <point x="235" y="220" type="curve" smooth="yes"/>
      <point x="235" y="201"/>
      <point x="225" y="189"/>
      <point x="193" y="177" type="curve" smooth="yes"/>
      <point x="155" y="163"/>
      <point x="144" y="158"/>
      <point x="121" y="142" type="curve" smooth="yes"/>
      <point x="74" y="109"/>
      <point x="50" y="58"/>
      <point x="50" y="-6" type="curve" smooth="yes"/>
      <point x="50" y="-120"/>
      <point x="125" y="-199"/>
    </contour>
  </outline>
</glyph>
<glyph name="circumflex" format="2">
  <advance width="349"/>
  <unicode hex="02C6"/>
  <outline>
    <contour>
      <point x="315" y="561" type="curve"/>
      <point x="227" y="713" type="line" smooth="yes"/>
      <point x="222" y="721"/>
      <point x="220" y="722"/>
      <point x="210" y="723" type="curve" smooth="yes"/>
      <point x="197" y="724"/>
      <point x="142" y="723"/>
      <point x="135" y="722" type="curve"/>
      <point x="130" y="720"/>
      <point x="125" y="717"/>
      <point x="122" y="712" type="curve" smooth="yes"/>
      <point x="33" y="556" type="line"/>
      <point x="29" y="548"/>
      <point x="49" y="543"/>
      <point x="57" y="550" type="curve" smooth="yes"/>
      <point x="172" y="654" type="line"/>
      <point x="294" y="550" type="line"/>
      <point x="297" y="547"/>
      <point x="307" y="546"/>
      <point x="314" y="548" type="curve"/>
      <point x="320" y="549"/>
      <point x="317" y="556"/>
    </contour>
  </outline>
</glyph>
<glyph name="dotaccent" format="2">
  <advance width="349"/>
  <unicode hex="02D9"/>
  <outline>
    <contour>
      <point x="235" y="612" type="curve" smooth="yes"/>
      <point x="235" y="645"/>
      <point x="208" y="672"/>
      <point x="175" y="672" type="curve" smooth="yes"/>
      <point x="142" y="672"/>
      <point x="115" y="644"/>
      <point x="115" y="612" type="curve" smooth="yes"/>
      <point x="115" y="579"/>
      <point x="142" y="551"/>
      <point x="175" y="551" type="curve" smooth="yes"/>
      <point x="208" y="551"/>
      <point x="235" y="579"/>
    </contour>
  </outline>
</glyph>
<glyph name="ring" format="2">
  <advance width="349"/>
  <unicode hex="02DA"/>
  <outline>
    <contour>
      <point x="274" y="652" type="curve" smooth="yes"/>
      <point x="274" y="709"/>
      <point x="228" y="755"/>
      <point x="173" y="755" type="curve" smooth="yes"/>
      <point x="116" y="755"/>
      <point x="70" y="709"/>
      <point x="70" y="652" type="curve" smooth="yes"/>
      <point x="70" y="595"/>
      <point x="116" y="549"/>
      <point x="173" y="549" type="curve" smooth="yes"/>
      <point x="228" y="549"/>
      <point x="274" y="595"/>
    </contour>
    <contour>
      <point x="227" y="652" type="curve" smooth="yes"/>
      <point x="227" y="621"/>
      <point x="202" y="596"/>
      <point x="173" y="596" type="curve" smooth="yes"/>
      <point x="142" y="596"/>
      <point x="117" y="621"/>
      <point x="117" y="652" type="curve" smooth="yes"/>
      <point x="117" y="683"/>
      <point x="142" y="708"/>
      <point x="173" y="708" type="curve" smooth="yes"/>
      <point x="202" y="708"/>
      <point x="227" y="683"/>
    </contour>
  </outline>
</glyph>
<glyph name="tilde" format="2">
  <advance width="349"/>
  <unicode hex="02DC"/>
  <outline>
    <contour>
      <point x="336" y="668" type="curve" smooth="yes"/>
      <point x="336" y="671"/>
      <point x="336" y="675"/>
      <point x="334" y="681" type="curve"/>
      <point x="334" y="685"/>
      <point x="328" y="688"/>
      <point x="322" y="687" type="curve"/>
      <point x="316" y="687"/>
      <point x="309" y="685"/>
      <point x="309" y="681" type="curve"/>
      <point x="301" y="627"/>
      <point x="290" y="615"/>
      <point x="269" y="615" type="curve" smooth="yes"/>
      <point x="257" y="615"/>
      <point x="241" y="621"/>
      <point x="210" y="642" type="curve" smooth="yes"/>
      <point x="165" y="673"/>
      <point x="142" y="682"/>
      <point x="112" y="682" type="curve" smooth="yes"/>
      <point x="51" y="682"/>
      <point x="18" y="633"/>
      <point x="14" y="547" type="curve"/>
      <point x="16" y="534"/>
      <point x="37" y="539"/>
      <point x="41" y="547" type="curve"/>
      <point x="42" y="557"/>
      <point x="44" y="561"/>
      <point x="44" y="565" type="curve"/>
      <point x="52" y="601"/>
      <point x="62" y="612"/>
      <point x="81" y="612" type="curve" smooth="yes"/>
      <point x="94" y="612"/>
      <point x="103" y="609"/>
      <point x="140" y="583" type="curve" smooth="yes"/>
      <point x="178" y="557"/>
      <point x="210" y="544"/>
      <point x="237" y="544" type="curve" smooth="yes"/>
      <point x="295" y="544"/>
      <point x="336" y="597"/>
    </contour>
  </outline>
</glyph>
<glyph name="hungarumlaut" format="2">
  <advance width="349"/>
  <unicode hex="02DD"/>
  <outline>
    <contour>
      <point x="332" y="652" type="line"/>
      <point x="334" y="657"/>
      <point x="335" y="660"/>
      <point x="328" y="662" type="curve"/>
      <point x="237" y="662" type="line" smooth="yes"/>
      <point x="232" y="662"/>
      <point x="229" y="660"/>
      <point x="227" y="654" type="curve"/>
      <point x="194" y="477" type="line"/>
      <point x="194" y="475"/>
      <point x="200" y="473"/>
      <point x="206" y="473" type="curve"/>
      <point x="212" y="472"/>
      <point x="220" y="473"/>
      <point x="222" y="476" type="curve" smooth="yes"/>
    </contour>
    <contour>
      <point x="175" y="652" type="line" smooth="yes"/>
      <point x="179" y="658"/>
      <point x="177" y="660"/>
      <point x="170" y="662" type="curve"/>
      <point x="82" y="662" type="line" smooth="yes"/>
      <point x="76" y="662"/>
      <point x="70" y="661"/>
      <point x="69" y="653" type="curve"/>
      <point x="36" y="477" type="line"/>
      <point x="36" y="473"/>
      <point x="56" y="471"/>
      <point x="63" y="476" type="curve"/>
    </contour>
  </outline>
</glyph>
<glyph name="endash" format="2">
  <advance width="480"/>
  <unicode hex="2013"/>
  <outline>
    <contour>
      <point x="95" y="229" type="curve"/>
      <point x="398" y="229" type="line" smooth="yes"/>
      <point x="414" y="229"/>
      <point x="414" y="274"/>
      <point x="398" y="274" type="curve" smooth="yes"/>
      <point x="95" y="274" type="line"/>
      <point x="81" y="265"/>
      <point x="82" y="228"/>
    </contour>
  </outline>
</glyph>
<glyph name="quoteleft" format="2">
  <advance width="272"/>
  <unicode hex="2018"/>
  <outline>
    <contour>
      <point x="146" y="452" type="curve" smooth="yes"/>
      <point x="178" y="452"/>
      <point x="203" y="476"/>
      <point x="203" y="507" type="curve" smooth="yes"/>
      <point x="203" y="536"/>
      <point x="183" y="559"/>
      <point x="155" y="559" type="curve" smooth="yes"/>
      <point x="147" y="559"/>
      <point x="138" y="556"/>
      <point x="130" y="555" type="curve"/>
      <point x="127" y="555"/>
      <point x="122" y="558"/>
      <point x="122" y="570" type="curve" smooth="yes"/>
      <point x="122" y="603"/>
      <point x="148" y="638"/>
      <point x="197" y="666" type="curve"/>
      <point x="217" y="681"/>
      <point x="202" y="700"/>
      <point x="188" y="695" type="curve" smooth="yes"/>
      <point x="117" y="668"/>
      <point x="70" y="606"/>
      <point x="70" y="541" type="curve" smooth="yes"/>
      <point x="70" y="491"/>
      <point x="102" y="452"/>
    </contour>
  </outline>
</glyph>
<glyph name="quotesinglbase" format="2">
  <advance width="396"/>
  <unicode hex="201A"/>
  <outline>
    <contour>
      <point x="196" y="287" type="curve" smooth="yes"/>
      <point x="283" y="287"/>
      <point x="342" y="370"/>
      <point x="342" y="468" type="curve" smooth="yes"/>
      <point x="342" y="566"/>
      <point x="283" y="650"/>
      <point x="196" y="650" type="curve" smooth="yes"/>
      <point x="109" y="650"/>
      <point x="49" y="566"/>
      <point x="49" y="468" type="curve" smooth="yes"/>
      <point x="49" y="370"/>
      <point x="109" y="287"/>
    </contour>
    <contour>
      <point x="196" y="613" type="curve" smooth="yes"/>
      <point x="266" y="613"/>
      <point x="270" y="516"/>
      <point x="270" y="468" type="curve" smooth="yes"/>
      <point x="270" y="380"/>
      <point x="254" y="327"/>
      <point x="196" y="327" type="curve" smooth="yes"/>
      <point x="143" y="327"/>
      <point x="121" y="389"/>
      <point x="121" y="468" type="curve" smooth="yes"/>
      <point x="121" y="518"/>
      <point x="124" y="613"/>
    </contour>
  </outline>
</glyph>
<glyph name="quotedblleft" format="2">
  <advance width="502"/>
  <unicode hex="201C"/>
  <outline>
    <contour>
      <point x="380" y="453" type="curve" smooth="yes"/>
      <point x="413" y="453"/>
      <point x="438" y="476"/>
      <point x="438" y="507" type="curve" smooth="yes"/>
      <point x="438" y="544"/>
      <point x="411" y="563"/>
      <point x="377" y="557" type="curve"/>
      <point x="373" y="556"/>
      <point x="368" y="555"/>
      <point x="364" y="555" type="curve" smooth="yes"/>
      <point x="361" y="555"/>
      <point x="357" y="558"/>
      <point x="357" y="570" type="curve" smooth="yes"/>
      <point x="357" y="603"/>
      <point x="382" y="639"/>
      <point x="432" y="666" type="curve" smooth="yes"/>
      <point x="450" y="676"/>
      <point x="438" y="699"/>
      <point x="423" y="693" type="curve" smooth="yes"/>
      <point x="352" y="666"/>
      <point x="304" y="606"/>
      <point x="304" y="541" type="curve" smooth="yes"/>
      <point x="304" y="491"/>
      <point x="335" y="453"/>
    </contour>
    <contour>
      <point x="157" y="452" type="curve" smooth="yes"/>
      <point x="189" y="452"/>
      <point x="215" y="476"/>
      <point x="215" y="507" type="curve" smooth="yes"/>
      <point x="215" y="542"/>
      <point x="187" y="564"/>
      <point x="154" y="557" type="curve" smooth="yes"/>
      <point x="150" y="556"/>
      <point x="145" y="555"/>
      <point x="141" y="555" type="curve" smooth="yes"/>
      <point x="138" y="555"/>
      <point x="133" y="558"/>
      <point x="133" y="570" type="curve" smooth="yes"/>
      <point x="133" y="603"/>
      <point x="159" y="637"/>
      <point x="209" y="666" type="curve" smooth="yes"/>
      <point x="224" y="675"/>
      <point x="212" y="696"/>
      <point x="200" y="693" type="curve"/>
      <point x="128" y="666"/>
      <point x="81" y="606"/>
      <point x="81" y="541" type="curve" smooth="yes"/>
      <point x="81" y="491"/>
      <point x="112" y="452"/>
    </contour>
  </outline>
</glyph>
<glyph name="quotedblright" format="2">
  <advance width="501"/>
  <unicode hex="201D"/>
  <outline>
    <contour>
      <point x="321" y="453" type="curve" smooth="yes"/>
      <point x="392" y="480"/>
      <point x="436" y="541"/>
      <point x="436" y="604" type="curve" smooth="yes"/>
      <point x="436" y="655"/>
      <point x="404" y="693"/>
      <point x="361" y="693" type="curve" smooth="yes"/>
      <point x="329" y="693"/>
      <point x="302" y="670"/>
      <point x="302" y="638" type="curve" smooth="yes"/>
      <point x="302" y="610"/>
      <point x="323" y="587"/>
      <point x="350" y="587" type="curve" smooth="yes"/>
      <point x="360" y="587"/>
      <point x="369" y="592"/>
      <point x="377" y="592" type="curve" smooth="yes"/>
      <point x="380" y="592"/>
      <point x="384" y="588"/>
      <point x="384" y="575" type="curve" smooth="yes"/>
      <point x="384" y="543"/>
      <point x="359" y="508"/>
      <point x="308" y="479" type="curve" smooth="yes"/>
      <point x="288" y="468"/>
      <point x="298" y="444"/>
    </contour>
    <contour>
      <point x="95" y="451" type="curve"/>
      <point x="165" y="479"/>
      <point x="211" y="541"/>
      <point x="211" y="604" type="curve" smooth="yes"/>
      <point x="211" y="655"/>
      <point x="181" y="695"/>
      <point x="138" y="695" type="curve" smooth="yes"/>
      <point x="105" y="695"/>
      <point x="79" y="670"/>
      <point x="79" y="638" type="curve" smooth="yes"/>
      <point x="79" y="610"/>
      <point x="100" y="587"/>
      <point x="127" y="587" type="curve" smooth="yes"/>
      <point x="136" y="587"/>
      <point x="146" y="592"/>
      <point x="152" y="592" type="curve" smooth="yes"/>
      <point x="156" y="592"/>
      <point x="161" y="588"/>
      <point x="161" y="575" type="curve" smooth="yes"/>
      <point x="161" y="543"/>
      <point x="136" y="508"/>
      <point x="84" y="479" type="curve" smooth="yes"/>
      <point x="65" y="468"/>
      <point x="78" y="446"/>
    </contour>
  </outline>
</glyph>
<glyph name="quotedblbase" format="2">
  <advance width="418"/>
  <unicode hex="201E"/>
  <outline>
    <contour>
      <point x="279" y="-138" type="curve" smooth="yes"/>
      <point x="350" y="-110"/>
      <point x="394" y="-50"/>
      <point x="394" y="14" type="curve" smooth="yes"/>
      <point x="394" y="65"/>
      <point x="362" y="102"/>
      <point x="319" y="102" type="curve" smooth="yes"/>
      <point x="287" y="102"/>
      <point x="260" y="79"/>
      <point x="260" y="48" type="curve" smooth="yes"/>
      <point x="260" y="19"/>
      <point x="281" y="-3"/>
      <point x="308" y="-3" type="curve" smooth="yes"/>
      <point x="318" y="-3"/>
      <point x="327" y="2"/>
      <point x="335" y="2" type="curve" smooth="yes"/>
      <point x="338" y="2"/>
      <point x="342" y="-2"/>
      <point x="342" y="-15" type="curve" smooth="yes"/>
      <point x="342" y="-47"/>
      <point x="317" y="-82"/>
      <point x="266" y="-111" type="curve" smooth="yes"/>
      <point x="246" y="-122"/>
      <point x="256" y="-147"/>
    </contour>
    <contour>
      <point x="59" y="-140" type="curve"/>
      <point x="129" y="-111"/>
      <point x="175" y="-50"/>
      <point x="175" y="14" type="curve" smooth="yes"/>
      <point x="175" y="65"/>
      <point x="145" y="104"/>
      <point x="102" y="104" type="curve" smooth="yes"/>
      <point x="69" y="104"/>
      <point x="43" y="79"/>
      <point x="43" y="48" type="curve" smooth="yes"/>
      <point x="43" y="19"/>
      <point x="64" y="-3"/>
      <point x="91" y="-3" type="curve" smooth="yes"/>
      <point x="100" y="-3"/>
      <point x="110" y="2"/>
      <point x="116" y="2" type="curve" smooth="yes"/>
      <point x="120" y="2"/>
      <point x="125" y="-2"/>
      <point x="125" y="-15" type="curve" smooth="yes"/>
      <point x="125" y="-47"/>
      <point x="100" y="-82"/>
      <point x="48" y="-111" type="curve" smooth="yes"/>
      <point x="29" y="-122"/>
      <point x="42" y="-144"/>
    </contour>
  </outline>
</glyph>
<glyph name="daggerdbl" format="2">
  <advance width="349"/>
  <unicode hex="2021"/>
  <outline>
    <contour>
      <point x="313" y="624" type="line"/>
      <point x="317" y="645"/>
      <point x="311" y="647"/>
      <point x="288" y="647" type="curve" smooth="yes"/>
      <point x="207" y="649"/>
      <point x="119" y="651"/>
      <point x="62" y="647" type="curve"/>
      <point x="51" y="648"/>
      <point x="35" y="636"/>
      <point x="34" y="627" type="curve"/>
      <point x="31" y="538" type="line"/>
      <point x="31" y="535"/>
      <point x="35" y="530"/>
      <point x="40" y="528" type="curve"/>
      <point x="47" y="526"/>
      <point x="53" y="528"/>
      <point x="57" y="528" type="curve" smooth="yes"/>
      <point x="73" y="528"/>
      <point x="72" y="559"/>
      <point x="80" y="566" type="curve"/>
      <point x="83" y="568"/>
      <point x="93" y="568"/>
      <point x="96" y="568" type="curve" smooth="yes"/>
      <point x="119" y="569"/>
      <point x="150" y="571"/>
      <point x="218" y="569" type="curve" smooth="yes"/>
      <point x="230" y="569"/>
      <point x="233" y="561"/>
      <point x="230" y="554" type="curve" smooth="yes"/>
      <point x="131" y="322" type="line" smooth="yes"/>
      <point x="122" y="301"/>
      <point x="157" y="293"/>
      <point x="163" y="293" type="curve"/>
      <point x="174" y="292"/>
      <point x="181" y="297"/>
      <point x="184" y="302" type="curve"/>
    </contour>
  </outline>
</glyph>
<glyph name="ellipsis" format="2">
  <advance width="1056"/>
  <unicode hex="2026"/>
  <outline>
    <contour>
      <point x="879" y="-17" type="curve" smooth="yes"/>
      <point x="914" y="-17"/>
      <point x="937" y="6"/>
      <point x="937" y="39" type="curve" smooth="yes"/>
      <point x="937" y="72"/>
      <point x="913" y="94"/>
      <point x="879" y="94" type="curve" smooth="yes"/>
      <point x="844" y="94"/>
      <point x="819" y="72"/>
      <point x="819" y="38" type="curve" smooth="yes"/>
      <point x="819" y="6"/>
      <point x="844" y="-17"/>
    </contour>
    <contour>
      <point x="535" y="-17" type="curve" smooth="yes"/>
      <point x="570" y="-17"/>
      <point x="592" y="6"/>
      <point x="592" y="39" type="curve" smooth="yes"/>
      <point x="592" y="72"/>
      <point x="569" y="94"/>
      <point x="534" y="94" type="curve" smooth="yes"/>
      <point x="499" y="94"/>
      <point x="474" y="72"/>
      <point x="474" y="38" type="curve" smooth="yes"/>
      <point x="474" y="6"/>
      <point x="500" y="-17"/>
    </contour>
    <contour>
      <point x="188" y="-16" type="curve" smooth="yes"/>
      <point x="223" y="-16"/>
      <point x="245" y="8"/>
      <point x="245" y="40" type="curve" smooth="yes"/>
      <point x="245" y="73"/>
      <point x="222" y="95"/>
      <point x="187" y="95" type="curve" smooth="yes"/>
      <point x="152" y="95"/>
      <point x="127" y="73"/>
      <point x="127" y="39" type="curve" smooth="yes"/>
      <point x="127" y="7"/>
      <point x="153" y="-16"/>
    </contour>
  </outline>
</glyph>
<glyph name="guilsinglright" format="2">
  <advance width="349"/>
  <unicode hex="203A"/>
  <outline>
    <contour>
      <point x="320" y="396" type="curve"/>
      <point x="319" y="404"/>
      <point x="324" y="417"/>
      <point x="321" y="425" type="curve" smooth="yes"/>
      <point x="317" y="435"/>
      <point x="313" y="434"/>
      <point x="305" y="435" type="curve"/>
      <point x="266" y="434" type="line"/>
      <point x="263" y="435"/>
      <point x="259" y="442"/>
      <point x="259" y="446" type="curve" smooth="yes"/>
      <point x="259" y="631" type="line"/>
      <point x="257" y="642"/>
      <point x="259" y="647"/>
      <point x="244" y="650" type="curve"/>
      <point x="237" y="650" type="line" smooth="yes"/>
      <point x="224" y="650"/>
      <point x="219" y="643"/>
      <point x="213" y="635" type="curve" smooth="yes"/>
      <point x="135" y="540"/>
      <point x="68" y="464"/>
      <point x="38" y="426" type="curve" smooth="yes"/>
      <point x="28" y="414"/>
      <point x="28" y="410"/>
      <point x="28" y="396" type="curve" smooth="yes"/>
      <point x="28" y="390"/>
      <point x="32" y="383"/>
      <point x="43" y="383" type="curve" smooth="yes"/>
      <point x="90" y="383"/>
      <point x="147" y="382"/>
      <point x="183" y="384" type="curve"/>
      <point x="189" y="383"/>
      <point x="194" y="377"/>
      <point x="195" y="371" type="curve"/>
      <point x="194" y="350"/>
      <point x="195" y="326"/>
      <point x="195" y="307" type="curve" smooth="yes"/>
      <point x="195" y="299"/>
      <point x="201" y="292"/>
      <point x="212" y="292" type="curve" smooth="yes"/>
      <point x="223" y="292"/>
      <point x="239" y="292"/>
      <point x="244" y="291" type="curve"/>
      <point x="257" y="292"/>
      <point x="260" y="302"/>
      <point x="260" y="307" type="curve" smooth="yes"/>
      <point x="261" y="327"/>
      <point x="261" y="346"/>
      <point x="260" y="371" type="curve"/>
      <point x="259" y="379"/>
      <point x="270" y="384"/>
      <point x="270" y="384" type="curve"/>
      <point x="306" y="386" type="line"/>
      <point x="312" y="386"/>
      <point x="318" y="389"/>
    </contour>
    <contour>
      <point x="197" y="548" type="curve"/>
      <point x="199" y="511"/>
      <point x="197" y="472"/>
      <point x="195" y="442" type="curve"/>
      <point x="195" y="437"/>
      <point x="190" y="433"/>
      <point x="187" y="433" type="curve" smooth="yes"/>
      <point x="154" y="432"/>
      <point x="137" y="432"/>
      <point x="110" y="432" type="curve" smooth="yes"/>
      <point x="97" y="432"/>
      <point x="96" y="437"/>
      <point x="100" y="443" type="curve"/>
      <point x="118" y="467"/>
      <point x="149" y="505"/>
      <point x="187" y="552" type="curve" smooth="yes"/>
      <point x="194" y="560"/>
      <point x="196" y="555"/>
    </contour>
  </outline>
</glyph>
<glyph name="Euro" format="2">
  <advance width="349"/>
  <unicode hex="20AC"/>
  <outline>
    <contour>
      <point x="300" y="320" type="curve"/>
      <point x="305" y="328"/>
      <point x="315" y="390"/>
      <point x="316" y="405" type="curve"/>
      <point x="317" y="413"/>
      <point x="316" y="423"/>
      <point x="309" y="423" type="curve"/>
      <point x="299" y="424" type="line"/>
      <point x="291" y="423"/>
      <point x="288" y="417"/>
      <point x="287" y="413" type="curve" smooth="yes"/>
      <point x="280" y="386"/>
      <point x="271" y="367"/>
      <point x="223" y="369" type="curve" smooth="yes"/>
      <point x="202" y="370"/>
      <point x="181" y="369"/>
      <point x="149" y="370" type="curve" smooth="yes"/>
      <point x="129" y="370"/>
      <point x="130" y="374"/>
      <point x="140" y="382" type="curve"/>
      <point x="164" y="398"/>
      <point x="183" y="411"/>
      <point x="202" y="426" type="curve" smooth="yes"/>
      <point x="221" y="440"/>
      <point x="240" y="456"/>
      <point x="263" y="479" type="curve" smooth="yes"/>
      <point x="285" y="501"/>
      <point x="307" y="528"/>
      <point x="307" y="560" type="curve" smooth="yes"/>
      <point x="307" y="618"/>
      <point x="263" y="669"/>
      <point x="187" y="669" type="curve"/>
      <point x="110" y="662"/>
      <point x="56" y="617"/>
      <point x="44" y="551" type="curve" smooth="yes"/>
      <point x="43" y="546"/>
      <point x="45" y="539"/>
      <point x="55" y="539" type="curve" smooth="yes"/>
      <point x="60" y="539"/>
      <point x="70" y="540"/>
      <point x="73" y="548" type="curve" smooth="yes"/>
      <point x="90" y="588"/>
      <point x="124" y="615"/>
      <point x="166" y="615" type="curve" smooth="yes"/>
      <point x="211" y="615"/>
      <point x="234" y="589"/>
      <point x="234" y="552" type="curve" smooth="yes"/>
      <point x="234" y="520"/>
      <point x="217" y="496"/>
      <point x="196" y="473" type="curve" smooth="yes"/>
      <point x="186" y="463"/>
      <point x="160" y="443"/>
      <point x="130" y="418" type="curve" smooth="yes"/>
      <point x="100" y="394"/>
      <point x="65" y="366"/>
      <point x="36" y="342" type="curve"/>
      <point x="33" y="338"/>
      <point x="29" y="325"/>
      <point x="29" y="320" type="curve"/>
      <point x="31" y="315" type="line"/>
      <point x="35" y="308"/>
      <point x="48" y="306"/>
      <point x="53" y="306" type="curve" smooth="yes"/>
      <point x="145" y="310"/>
      <point x="215" y="307"/>
      <point x="268" y="306" type="curve" smooth="yes"/>
      <point x="282" y="306"/>
      <point x="294" y="307"/>
    </contour>
  </outline>
</glyph>
<glyph name="onesuperior" format="2">
  <advance width="301"/>
  <outline>
    <contour>
      <point x="250" y="315" type="curve"/>
      <point x="250" y="317"/>
      <point x="250" y="326"/>
      <point x="250" y="327" type="curve"/>
      <point x="248" y="335"/>
      <point x="245" y="340"/>
      <point x="236" y="340" type="curve" smooth="yes"/>
      <point x="203" y="341"/>
      <point x="195" y="346"/>
      <point x="195" y="377" type="curve" smooth="yes"/>
      <point x="195" y="644" type="line"/>
      <point x="193" y="650"/>
      <point x="189" y="659"/>
      <point x="180" y="659" type="curve" smooth="yes"/>
      <point x="165" y="659" type="line" smooth="yes"/>
      <point x="157" y="659"/>
      <point x="149" y="653"/>
      <point x="147" y="650" type="curve" smooth="yes"/>
      <point x="131" y="624"/>
      <point x="105" y="607"/>
      <point x="59" y="578" type="curve" smooth="yes"/>
      <point x="56" y="576"/>
      <point x="55" y="571"/>
      <point x="55" y="568" type="curve"/>
      <point x="59" y="559" type="line"/>
      <point x="63" y="555"/>
      <point x="67" y="552"/>
      <point x="71" y="553" type="curve"/>
      <point x="86" y="555"/>
      <point x="99" y="559"/>
      <point x="118" y="570" type="curve" smooth="yes"/>
      <point x="125" y="574"/>
      <point x="129" y="563"/>
      <point x="130" y="555" type="curve"/>
      <point x="130" y="383" type="line" smooth="yes"/>
      <point x="130" y="369"/>
      <point x="129" y="342"/>
      <point x="111" y="342" type="curve"/>
      <point x="105" y="340"/>
      <point x="95" y="339"/>
      <point x="88" y="339" type="curve" smooth="yes"/>
      <point x="77" y="339"/>
      <point x="75" y="335"/>
      <point x="70" y="329" type="curve"/>
      <point x="68" y="323"/>
      <point x="69" y="317"/>
      <point x="69" y="314" type="curve"/>
      <point x="70" y="307"/>
      <point x="76" y="303"/>
      <point x="81" y="304" type="curve"/>
      <point x="106" y="307"/>
      <point x="210" y="305"/>
      <point x="236" y="304" type="curve"/>
      <point x="245" y="303"/>
      <point x="249" y="306"/>
    </contour>
  </outline>
</glyph>
<glyph name="threesuperior" format="2">
  <advance width="349"/>
  <outline>
    <contour>
      <point x="141" y="292" type="curve" smooth="yes"/>
      <point x="236" y="292"/>
      <point x="313" y="343"/>
      <point x="313" y="414" type="curve" smooth="yes"/>
      <point x="313" y="455"/>
      <point x="284" y="485"/>
      <point x="256" y="501" type="curve" smooth="yes"/>
      <point x="251" y="504"/>
      <point x="243" y="509"/>
      <point x="252" y="516" type="curve" smooth="yes"/>
      <point x="276" y="535"/>
      <point x="284" y="564"/>
      <point x="284" y="587" type="curve" smooth="yes"/>
      <point x="284" y="626"/>
      <point x="239" y="659"/>
      <point x="185" y="659" type="curve" smooth="yes"/>
      <point x="130" y="659"/>
      <point x="80" y="630"/>
      <point x="53" y="582" type="curve" smooth="yes"/>
      <point x="45" y="568"/>
      <point x="78" y="560"/>
      <point x="85" y="569" type="curve"/>
      <point x="106" y="599"/>
      <point x="131" y="611"/>
      <point x="161" y="611" type="curve" smooth="yes"/>
      <point x="194" y="611"/>
      <point x="219" y="591"/>
      <point x="219" y="568" type="curve" smooth="yes"/>
      <point x="219" y="555"/>
      <point x="214" y="534"/>
      <point x="191" y="516" type="curve" smooth="yes"/>
      <point x="174" y="502"/>
      <point x="158" y="498"/>
      <point x="137" y="491" type="curve"/>
      <point x="133" y="489"/>
      <point x="127" y="479"/>
      <point x="132" y="472" type="curve"/>
      <point x="136" y="464"/>
      <point x="139" y="453"/>
      <point x="145" y="456" type="curve" smooth="yes"/>
      <point x="159" y="463"/>
      <point x="178" y="466"/>
      <point x="189" y="466" type="curve" smooth="yes"/>
      <point x="225" y="466"/>
      <point x="241" y="441"/>
      <point x="240" y="400" type="curve" smooth="yes"/>
      <point x="239" y="361"/>
      <point x="212" y="322"/>
      <point x="164" y="322" type="curve" smooth="yes"/>
      <point x="145" y="322"/>
      <point x="121" y="336"/>
      <point x="104" y="351" type="curve" smooth="yes"/>
      <point x="92" y="362"/>
      <point x="79" y="377"/>
      <point x="62" y="377" type="curve" smooth="yes"/>
      <point x="46" y="377"/>
      <point x="26" y="357"/>
      <point x="26" y="343" type="curve" smooth="yes"/>
      <point x="26" y="315"/>
      <point x="87" y="292"/>
    </contour>
  </outline>
</glyph>
